<?xml version="1.0" standalone="no"?>
 <!DOCTYPE svg PUBLIC "-//W3C//DTD SVG 1.1//EN" 
 "http://www.w3.org/Graphics/SVG/1.1/DTD/svg11.dtd"> 
<svg xmlns="http://www.w3.org/2000/svg" version="1.1" 
    width="29.7002cm" height="21.0007cm" viewBox="0 0 116930 82680 ">
<title>SVG Picture created as Flipdot Wiring.svg date 2016/10/23 22:17:35 </title>
  <desc>Picture generated by Eeschema-SVG </desc>
<g style="fill:#000000; fill-opacity:1;stroke:#000000; stroke-opacity:1;
stroke-linecap:round; stroke-linejoin:round; "
 transform="translate(0 0) scale(1 1)">
</g>
<g style="fill:#000000; fill-opacity:0.0; 
stroke:#000000; stroke-width:-10; stroke-opacity:1; 
stroke-linecap:round; stroke-linejoin:round;">
</g>
<g style="fill:#840000; fill-opacity:0.0; 
stroke:#840000; stroke-width:-10; stroke-opacity:1; 
stroke-linecap:round; stroke-linejoin:round;">
</g>
<g style="fill:#840000; fill-opacity:0.0; 
stroke:#840000; stroke-width:100; stroke-opacity:1; 
stroke-linecap:round; stroke-linejoin:round;">
</g>
<g style="fill:#840000; fill-opacity:0.0; 
stroke:#840000; stroke-width:60; stroke-opacity:1; 
stroke-linecap:round; stroke-linejoin:round;">
<rect x="69690" y="65360" width="42520" height="12600" rx="0" />
</g>
<g style="fill:#840000; fill-opacity:0.0; 
stroke:#840000; stroke-width:100; stroke-opacity:1; 
stroke-linecap:round; stroke-linejoin:round;">
</g>
<g style="fill:#840000; fill-opacity:0.0; 
stroke:#840000; stroke-width:60; stroke-opacity:1; 
stroke-linecap:round; stroke-linejoin:round;">
<rect x="3940" y="3940" width="109050" height="74800" rx="0" />
</g>
<g style="fill:#840000; fill-opacity:0.0; 
stroke:#840000; stroke-width:100; stroke-opacity:1; 
stroke-linecap:round; stroke-linejoin:round;">
</g>
<g style="fill:#840000; fill-opacity:0.0; 
stroke:#840000; stroke-width:60; stroke-opacity:1; 
stroke-linecap:round; stroke-linejoin:round;">
<rect x="4720" y="4720" width="107490" height="73240" rx="0" />
</g>
<g style="fill:#840000; fill-opacity:0.0; 
stroke:#840000; stroke-width:100; stroke-opacity:1; 
stroke-linecap:round; stroke-linejoin:round;">
</g>
<g style="fill:#840000; fill-opacity:0.0; 
stroke:#840000; stroke-width:60; stroke-opacity:1; 
stroke-linecap:round; stroke-linejoin:round;">
<path d="M23620 4720
L23620 3940
" />
</g>
<g style="fill:#840000; fill-opacity:0.0; 
stroke:#840000; stroke-width:100; stroke-opacity:1; 
stroke-linecap:round; stroke-linejoin:round;">
</g>
<g style="fill:#840000; fill-opacity:0.0; 
stroke:#840000; stroke-width:60; stroke-opacity:1; 
stroke-linecap:round; stroke-linejoin:round;">
<path d="M43310 4720
L43310 3940
" />
</g>
<g style="fill:#840000; fill-opacity:0.0; 
stroke:#840000; stroke-width:100; stroke-opacity:1; 
stroke-linecap:round; stroke-linejoin:round;">
</g>
<g style="fill:#840000; fill-opacity:0.0; 
stroke:#840000; stroke-width:60; stroke-opacity:1; 
stroke-linecap:round; stroke-linejoin:round;">
<path d="M62990 4720
L62990 3940
" />
</g>
<g style="fill:#840000; fill-opacity:0.0; 
stroke:#840000; stroke-width:100; stroke-opacity:1; 
stroke-linecap:round; stroke-linejoin:round;">
</g>
<g style="fill:#840000; fill-opacity:0.0; 
stroke:#840000; stroke-width:60; stroke-opacity:1; 
stroke-linecap:round; stroke-linejoin:round;">
<path d="M82680 4720
L82680 3940
" />
</g>
<g style="fill:#840000; fill-opacity:0.0; 
stroke:#840000; stroke-width:100; stroke-opacity:1; 
stroke-linecap:round; stroke-linejoin:round;">
</g>
<g style="fill:#840000; fill-opacity:0.0; 
stroke:#840000; stroke-width:60; stroke-opacity:1; 
stroke-linecap:round; stroke-linejoin:round;">
<path d="M102360 4720
L102360 3940
" />
</g>
<g style="fill:#840000; fill-opacity:0.0; 
stroke:#840000; stroke-width:100; stroke-opacity:1; 
stroke-linecap:round; stroke-linejoin:round;">
</g>
<g style="fill:#840000; fill-opacity:0.0; 
stroke:#840000; stroke-width:60; stroke-opacity:1; 
stroke-linecap:round; stroke-linejoin:round;">
<path d="M14170 4560
L13880 4560
" />
<path d="M14020 4560
L14020 4050
L13970 4120
L13930 4170
L13880 4190
" />
</g>
<g style="fill:#840000; fill-opacity:0.0; 
stroke:#840000; stroke-width:100; stroke-opacity:1; 
stroke-linecap:round; stroke-linejoin:round;">
</g>
<g style="fill:#840000; fill-opacity:0.0; 
stroke:#840000; stroke-width:60; stroke-opacity:1; 
stroke-linecap:round; stroke-linejoin:round;">
<path d="M33560 4090
L33580 4070
L33630 4050
L33750 4050
L33800 4070
L33820 4090
L33850 4140
L33850 4190
L33820 4260
L33530 4560
L33850 4560
" />
</g>
<g style="fill:#840000; fill-opacity:0.0; 
stroke:#840000; stroke-width:100; stroke-opacity:1; 
stroke-linecap:round; stroke-linejoin:round;">
</g>
<g style="fill:#840000; fill-opacity:0.0; 
stroke:#840000; stroke-width:60; stroke-opacity:1; 
stroke-linecap:round; stroke-linejoin:round;">
<path d="M53220 4050
L53540 4050
L53370 4240
L53440 4240
L53490 4260
L53510 4290
L53540 4340
L53540 4460
L53510 4510
L53490 4530
L53440 4560
L53300 4560
L53250 4530
L53220 4510
" />
</g>
<g style="fill:#840000; fill-opacity:0.0; 
stroke:#840000; stroke-width:100; stroke-opacity:1; 
stroke-linecap:round; stroke-linejoin:round;">
</g>
<g style="fill:#840000; fill-opacity:0.0; 
stroke:#840000; stroke-width:60; stroke-opacity:1; 
stroke-linecap:round; stroke-linejoin:round;">
<path d="M73170 4220
L73170 4560
" />
<path d="M73050 4020
L72930 4390
L73240 4390
" />
</g>
<g style="fill:#840000; fill-opacity:0.0; 
stroke:#840000; stroke-width:100; stroke-opacity:1; 
stroke-linecap:round; stroke-linejoin:round;">
</g>
<g style="fill:#840000; fill-opacity:0.0; 
stroke:#840000; stroke-width:60; stroke-opacity:1; 
stroke-linecap:round; stroke-linejoin:round;">
<path d="M92880 4050
L92640 4050
L92620 4290
L92640 4260
L92690 4240
L92810 4240
L92860 4260
L92880 4290
L92910 4340
L92910 4460
L92880 4510
L92860 4530
L92810 4560
L92690 4560
L92640 4530
L92620 4510
" />
</g>
<g style="fill:#840000; fill-opacity:0.0; 
stroke:#840000; stroke-width:100; stroke-opacity:1; 
stroke-linecap:round; stroke-linejoin:round;">
</g>
<g style="fill:#840000; fill-opacity:0.0; 
stroke:#840000; stroke-width:60; stroke-opacity:1; 
stroke-linecap:round; stroke-linejoin:round;">
<path d="M112540 4050
L112440 4050
L112390 4070
L112370 4090
L112320 4170
L112300 4260
L112300 4460
L112320 4510
L112350 4530
L112390 4560
L112490 4560
L112540 4530
L112560 4510
L112590 4460
L112590 4340
L112560 4290
L112540 4260
L112490 4240
L112390 4240
L112350 4260
L112320 4290
L112300 4340
" />
</g>
<g style="fill:#840000; fill-opacity:0.0; 
stroke:#840000; stroke-width:100; stroke-opacity:1; 
stroke-linecap:round; stroke-linejoin:round;">
</g>
<g style="fill:#840000; fill-opacity:0.0; 
stroke:#840000; stroke-width:60; stroke-opacity:1; 
stroke-linecap:round; stroke-linejoin:round;">
<path d="M23620 77960
L23620 78740
" />
</g>
<g style="fill:#840000; fill-opacity:0.0; 
stroke:#840000; stroke-width:100; stroke-opacity:1; 
stroke-linecap:round; stroke-linejoin:round;">
</g>
<g style="fill:#840000; fill-opacity:0.0; 
stroke:#840000; stroke-width:60; stroke-opacity:1; 
stroke-linecap:round; stroke-linejoin:round;">
<path d="M43310 77960
L43310 78740
" />
</g>
<g style="fill:#840000; fill-opacity:0.0; 
stroke:#840000; stroke-width:100; stroke-opacity:1; 
stroke-linecap:round; stroke-linejoin:round;">
</g>
<g style="fill:#840000; fill-opacity:0.0; 
stroke:#840000; stroke-width:60; stroke-opacity:1; 
stroke-linecap:round; stroke-linejoin:round;">
<path d="M62990 77960
L62990 78740
" />
</g>
<g style="fill:#840000; fill-opacity:0.0; 
stroke:#840000; stroke-width:100; stroke-opacity:1; 
stroke-linecap:round; stroke-linejoin:round;">
</g>
<g style="fill:#840000; fill-opacity:0.0; 
stroke:#840000; stroke-width:60; stroke-opacity:1; 
stroke-linecap:round; stroke-linejoin:round;">
<path d="M82680 77960
L82680 78740
" />
</g>
<g style="fill:#840000; fill-opacity:0.0; 
stroke:#840000; stroke-width:100; stroke-opacity:1; 
stroke-linecap:round; stroke-linejoin:round;">
</g>
<g style="fill:#840000; fill-opacity:0.0; 
stroke:#840000; stroke-width:60; stroke-opacity:1; 
stroke-linecap:round; stroke-linejoin:round;">
<path d="M102360 77960
L102360 78740
" />
</g>
<g style="fill:#840000; fill-opacity:0.0; 
stroke:#840000; stroke-width:100; stroke-opacity:1; 
stroke-linecap:round; stroke-linejoin:round;">
</g>
<g style="fill:#840000; fill-opacity:0.0; 
stroke:#840000; stroke-width:60; stroke-opacity:1; 
stroke-linecap:round; stroke-linejoin:round;">
<path d="M14170 78580
L13880 78580
" />
<path d="M14020 78580
L14020 78070
L13970 78140
L13930 78190
L13880 78210
" />
</g>
<g style="fill:#840000; fill-opacity:0.0; 
stroke:#840000; stroke-width:100; stroke-opacity:1; 
stroke-linecap:round; stroke-linejoin:round;">
</g>
<g style="fill:#840000; fill-opacity:0.0; 
stroke:#840000; stroke-width:60; stroke-opacity:1; 
stroke-linecap:round; stroke-linejoin:round;">
<path d="M33560 78110
L33580 78090
L33630 78070
L33750 78070
L33800 78090
L33820 78110
L33850 78160
L33850 78210
L33820 78280
L33530 78580
L33850 78580
" />
</g>
<g style="fill:#840000; fill-opacity:0.0; 
stroke:#840000; stroke-width:100; stroke-opacity:1; 
stroke-linecap:round; stroke-linejoin:round;">
</g>
<g style="fill:#840000; fill-opacity:0.0; 
stroke:#840000; stroke-width:60; stroke-opacity:1; 
stroke-linecap:round; stroke-linejoin:round;">
<path d="M53220 78070
L53540 78070
L53370 78260
L53440 78260
L53490 78280
L53510 78310
L53540 78360
L53540 78480
L53510 78530
L53490 78550
L53440 78580
L53300 78580
L53250 78550
L53220 78530
" />
</g>
<g style="fill:#840000; fill-opacity:0.0; 
stroke:#840000; stroke-width:100; stroke-opacity:1; 
stroke-linecap:round; stroke-linejoin:round;">
</g>
<g style="fill:#840000; fill-opacity:0.0; 
stroke:#840000; stroke-width:60; stroke-opacity:1; 
stroke-linecap:round; stroke-linejoin:round;">
<path d="M73170 78240
L73170 78580
" />
<path d="M73050 78040
L72930 78410
L73240 78410
" />
</g>
<g style="fill:#840000; fill-opacity:0.0; 
stroke:#840000; stroke-width:100; stroke-opacity:1; 
stroke-linecap:round; stroke-linejoin:round;">
</g>
<g style="fill:#840000; fill-opacity:0.0; 
stroke:#840000; stroke-width:60; stroke-opacity:1; 
stroke-linecap:round; stroke-linejoin:round;">
<path d="M92880 78070
L92640 78070
L92620 78310
L92640 78280
L92690 78260
L92810 78260
L92860 78280
L92880 78310
L92910 78360
L92910 78480
L92880 78530
L92860 78550
L92810 78580
L92690 78580
L92640 78550
L92620 78530
" />
</g>
<g style="fill:#840000; fill-opacity:0.0; 
stroke:#840000; stroke-width:100; stroke-opacity:1; 
stroke-linecap:round; stroke-linejoin:round;">
</g>
<g style="fill:#840000; fill-opacity:0.0; 
stroke:#840000; stroke-width:60; stroke-opacity:1; 
stroke-linecap:round; stroke-linejoin:round;">
<path d="M112540 78070
L112440 78070
L112390 78090
L112370 78110
L112320 78190
L112300 78280
L112300 78480
L112320 78530
L112350 78550
L112390 78580
L112490 78580
L112540 78550
L112560 78530
L112590 78480
L112590 78360
L112560 78310
L112540 78280
L112490 78260
L112390 78260
L112350 78280
L112320 78310
L112300 78360
" />
</g>
<g style="fill:#840000; fill-opacity:0.0; 
stroke:#840000; stroke-width:100; stroke-opacity:1; 
stroke-linecap:round; stroke-linejoin:round;">
</g>
<g style="fill:#840000; fill-opacity:0.0; 
stroke:#840000; stroke-width:60; stroke-opacity:1; 
stroke-linecap:round; stroke-linejoin:round;">
<path d="M3940 23620
L4720 23620
" />
</g>
<g style="fill:#840000; fill-opacity:0.0; 
stroke:#840000; stroke-width:100; stroke-opacity:1; 
stroke-linecap:round; stroke-linejoin:round;">
</g>
<g style="fill:#840000; fill-opacity:0.0; 
stroke:#840000; stroke-width:60; stroke-opacity:1; 
stroke-linecap:round; stroke-linejoin:round;">
<path d="M3940 43310
L4720 43310
" />
</g>
<g style="fill:#840000; fill-opacity:0.0; 
stroke:#840000; stroke-width:100; stroke-opacity:1; 
stroke-linecap:round; stroke-linejoin:round;">
</g>
<g style="fill:#840000; fill-opacity:0.0; 
stroke:#840000; stroke-width:60; stroke-opacity:1; 
stroke-linecap:round; stroke-linejoin:round;">
<path d="M3940 62990
L4720 62990
" />
</g>
<g style="fill:#840000; fill-opacity:0.0; 
stroke:#840000; stroke-width:100; stroke-opacity:1; 
stroke-linecap:round; stroke-linejoin:round;">
</g>
<g style="fill:#840000; fill-opacity:0.0; 
stroke:#840000; stroke-width:60; stroke-opacity:1; 
stroke-linecap:round; stroke-linejoin:round;">
<path d="M4210 13860
L4450 13860
" />
<path d="M4160 14010
L4330 13500
L4500 14010
" />
</g>
<g style="fill:#840000; fill-opacity:0.0; 
stroke:#840000; stroke-width:100; stroke-opacity:1; 
stroke-linecap:round; stroke-linejoin:round;">
</g>
<g style="fill:#840000; fill-opacity:0.0; 
stroke:#840000; stroke-width:60; stroke-opacity:1; 
stroke-linecap:round; stroke-linejoin:round;">
<path d="M4370 33420
L4440 33440
L4470 33470
L4490 33520
L4490 33590
L4470 33640
L4440 33660
L4400 33690
L4200 33690
L4200 33180
L4370 33180
L4420 33200
L4440 33220
L4470 33270
L4470 33320
L4440 33370
L4420 33390
L4370 33420
L4200 33420
" />
</g>
<g style="fill:#840000; fill-opacity:0.0; 
stroke:#840000; stroke-width:100; stroke-opacity:1; 
stroke-linecap:round; stroke-linejoin:round;">
</g>
<g style="fill:#840000; fill-opacity:0.0; 
stroke:#840000; stroke-width:60; stroke-opacity:1; 
stroke-linecap:round; stroke-linejoin:round;">
<path d="M4490 53330
L4470 53350
L4400 53380
L4350 53380
L4270 53350
L4230 53300
L4200 53250
L4180 53160
L4180 53080
L4200 52990
L4230 52940
L4270 52890
L4350 52870
L4400 52870
L4470 52890
L4490 52910
" />
</g>
<g style="fill:#840000; fill-opacity:0.0; 
stroke:#840000; stroke-width:100; stroke-opacity:1; 
stroke-linecap:round; stroke-linejoin:round;">
</g>
<g style="fill:#840000; fill-opacity:0.0; 
stroke:#840000; stroke-width:60; stroke-opacity:1; 
stroke-linecap:round; stroke-linejoin:round;">
<path d="M4200 73060
L4200 72550
L4320 72550
L4400 72570
L4440 72620
L4470 72670
L4490 72760
L4490 72840
L4470 72930
L4440 72980
L4400 73030
L4320 73060
L4200 73060
" />
</g>
<g style="fill:#840000; fill-opacity:0.0; 
stroke:#840000; stroke-width:100; stroke-opacity:1; 
stroke-linecap:round; stroke-linejoin:round;">
</g>
<g style="fill:#840000; fill-opacity:0.0; 
stroke:#840000; stroke-width:60; stroke-opacity:1; 
stroke-linecap:round; stroke-linejoin:round;">
<path d="M112990 23620
L112210 23620
" />
</g>
<g style="fill:#840000; fill-opacity:0.0; 
stroke:#840000; stroke-width:100; stroke-opacity:1; 
stroke-linecap:round; stroke-linejoin:round;">
</g>
<g style="fill:#840000; fill-opacity:0.0; 
stroke:#840000; stroke-width:60; stroke-opacity:1; 
stroke-linecap:round; stroke-linejoin:round;">
<path d="M112990 43310
L112210 43310
" />
</g>
<g style="fill:#840000; fill-opacity:0.0; 
stroke:#840000; stroke-width:100; stroke-opacity:1; 
stroke-linecap:round; stroke-linejoin:round;">
</g>
<g style="fill:#840000; fill-opacity:0.0; 
stroke:#840000; stroke-width:60; stroke-opacity:1; 
stroke-linecap:round; stroke-linejoin:round;">
<path d="M112990 62990
L112210 62990
" />
</g>
<g style="fill:#840000; fill-opacity:0.0; 
stroke:#840000; stroke-width:100; stroke-opacity:1; 
stroke-linecap:round; stroke-linejoin:round;">
</g>
<g style="fill:#840000; fill-opacity:0.0; 
stroke:#840000; stroke-width:60; stroke-opacity:1; 
stroke-linecap:round; stroke-linejoin:round;">
<path d="M112480 13860
L112720 13860
" />
<path d="M112430 14010
L112600 13500
L112770 14010
" />
</g>
<g style="fill:#840000; fill-opacity:0.0; 
stroke:#840000; stroke-width:100; stroke-opacity:1; 
stroke-linecap:round; stroke-linejoin:round;">
</g>
<g style="fill:#840000; fill-opacity:0.0; 
stroke:#840000; stroke-width:60; stroke-opacity:1; 
stroke-linecap:round; stroke-linejoin:round;">
<path d="M112640 33420
L112710 33440
L112740 33470
L112760 33520
L112760 33590
L112740 33640
L112710 33660
L112670 33690
L112470 33690
L112470 33180
L112640 33180
L112690 33200
L112710 33220
L112740 33270
L112740 33320
L112710 33370
L112690 33390
L112640 33420
L112470 33420
" />
</g>
<g style="fill:#840000; fill-opacity:0.0; 
stroke:#840000; stroke-width:100; stroke-opacity:1; 
stroke-linecap:round; stroke-linejoin:round;">
</g>
<g style="fill:#840000; fill-opacity:0.0; 
stroke:#840000; stroke-width:60; stroke-opacity:1; 
stroke-linecap:round; stroke-linejoin:round;">
<path d="M112760 53330
L112740 53350
L112670 53380
L112620 53380
L112540 53350
L112500 53300
L112470 53250
L112450 53160
L112450 53080
L112470 52990
L112500 52940
L112540 52890
L112620 52870
L112670 52870
L112740 52890
L112760 52910
" />
</g>
<g style="fill:#840000; fill-opacity:0.0; 
stroke:#840000; stroke-width:100; stroke-opacity:1; 
stroke-linecap:round; stroke-linejoin:round;">
</g>
<g style="fill:#840000; fill-opacity:0.0; 
stroke:#840000; stroke-width:60; stroke-opacity:1; 
stroke-linecap:round; stroke-linejoin:round;">
<path d="M112470 73060
L112470 72550
L112590 72550
L112670 72570
L112710 72620
L112740 72670
L112760 72760
L112760 72840
L112740 72930
L112710 72980
L112670 73030
L112590 73060
L112470 73060
" />
</g>
<g style="fill:#840000; fill-opacity:0.0; 
stroke:#840000; stroke-width:100; stroke-opacity:1; 
stroke-linecap:round; stroke-linejoin:round;">
</g>
<g style="fill:#840000; fill-opacity:0.0; 
stroke:#840000; stroke-width:60; stroke-opacity:1; 
stroke-linecap:round; stroke-linejoin:round;">
<path d="M78880 76290
L78880 75700
L79020 75700
L79110 75730
L79160 75790
L79190 75840
L79220 75950
L79220 76040
L79190 76150
L79160 76210
L79110 76260
L79020 76290
L78880 76290
" />
<path d="M79720 76290
L79720 75980
L79700 75930
L79640 75900
L79530 75900
L79470 75930
" />
<path d="M79720 76260
L79670 76290
L79530 76290
L79470 76260
L79440 76210
L79440 76150
L79470 76100
L79530 76070
L79670 76070
L79720 76040
" />
<path d="M79920 75900
L80140 75900
" />
<path d="M80000 75700
L80000 76210
L80030 76260
L80080 76290
L80140 76290
" />
<path d="M80570 76260
L80510 76290
L80400 76290
L80340 76260
L80310 76210
L80310 75980
L80340 75930
L80400 75900
L80510 75900
L80570 75930
L80590 75980
L80590 76040
L80310 76100
" />
<path d="M80850 76240
L80880 76260
L80850 76290
L80820 76260
L80850 76240
L80850 76290
" />
<path d="M80850 75930
L80880 75950
L80850 75980
L80820 75950
L80850 75930
L80850 75980
" />
<path d="M81550 75760
L81580 75730
L81640 75700
L81780 75700
L81830 75730
L81860 75760
L81890 75810
L81890 75870
L81860 75950
L81520 76290
L81890 76290
" />
<path d="M82250 75700
L82310 75700
L82370 75730
L82390 75760
L82420 75810
L82450 75930
L82450 76070
L82420 76180
L82390 76240
L82370 76260
L82310 76290
L82250 76290
L82200 76260
L82170 76240
L82140 76180
L82110 76070
L82110 75930
L82140 75810
L82170 75760
L82200 75730
L82250 75700
" />
<path d="M83010 76290
L82670 76290
" />
<path d="M82840 76290
L82840 75700
L82780 75790
L82730 75840
L82670 75870
" />
<path d="M83510 75700
L83400 75700
L83340 75730
L83320 75760
L83260 75840
L83230 75950
L83230 76180
L83260 76240
L83290 76260
L83340 76290
L83460 76290
L83510 76260
L83540 76240
L83570 76180
L83570 76040
L83540 75980
L83510 75950
L83460 75930
L83340 75930
L83290 75950
L83260 75980
L83230 76040
" />
<path d="M83820 76070
L84270 76070
" />
<path d="M84860 76290
L84520 76290
" />
<path d="M84690 76290
L84690 75700
L84630 75790
L84580 75840
L84520 75870
" />
<path d="M85220 75700
L85280 75700
L85340 75730
L85360 75760
L85390 75810
L85420 75930
L85420 76070
L85390 76180
L85360 76240
L85340 76260
L85280 76290
L85220 76290
L85170 76260
L85140 76240
L85110 76180
L85080 76070
L85080 75930
L85110 75810
L85140 75760
L85170 75730
L85220 75700
" />
<path d="M85670 76070
L86120 76070
" />
<path d="M86370 75760
L86400 75730
L86460 75700
L86600 75700
L86650 75730
L86680 75760
L86710 75810
L86710 75870
L86680 75950
L86340 76290
L86710 76290
" />
<path d="M86900 75700
L87270 75700
L87070 75930
L87160 75930
L87210 75950
L87240 75980
L87270 76040
L87270 76180
L87240 76240
L87210 76260
L87160 76290
L86990 76290
L86930 76260
L86900 76240
" />
</g>
<g style="fill:#840000; fill-opacity:0.0; 
stroke:#840000; stroke-width:100; stroke-opacity:1; 
stroke-linecap:round; stroke-linejoin:round;">
</g>
<g style="fill:#840000; fill-opacity:0.0; 
stroke:#840000; stroke-width:60; stroke-opacity:1; 
stroke-linecap:round; stroke-linejoin:round;">
<path d="M69690 76580
L112210 76580
" />
</g>
<g style="fill:#840000; fill-opacity:0.0; 
stroke:#840000; stroke-width:100; stroke-opacity:1; 
stroke-linecap:round; stroke-linejoin:round;">
</g>
<g style="fill:#840000; fill-opacity:0.0; 
stroke:#840000; stroke-width:60; stroke-opacity:1; 
stroke-linecap:round; stroke-linejoin:round;">
<path d="M70220 77390
L70220 76800
" />
<path d="M70560 77390
L70300 77050
" />
<path d="M70560 76800
L70220 77140
" />
<path d="M70810 77390
L70810 77000
" />
<path d="M70810 76800
L70780 76830
L70810 76860
L70840 76830
L70810 76800
L70810 76860
" />
<path d="M71430 77340
L71400 77360
L71320 77390
L71260 77390
L71170 77360
L71120 77310
L71090 77250
L71060 77140
L71060 77050
L71090 76940
L71120 76890
L71170 76830
L71260 76800
L71320 76800
L71400 76830
L71430 76860
" />
<path d="M71930 77390
L71930 77080
L71910 77030
L71850 77000
L71740 77000
L71680 77030
" />
<path d="M71930 77360
L71880 77390
L71740 77390
L71680 77360
L71650 77310
L71650 77250
L71680 77200
L71740 77170
L71880 77170
L71930 77140
" />
<path d="M72460 77390
L72460 76800
" />
<path d="M72460 77360
L72410 77390
L72290 77390
L72240 77360
L72210 77340
L72180 77280
L72180 77110
L72210 77050
L72240 77030
L72290 77000
L72410 77000
L72460 77030
" />
<path d="M73190 77080
L73390 77080
" />
<path d="M73470 77390
L73190 77390
L73190 76800
L73470 76800
" />
<path d="M73720 77340
L73750 77360
L73720 77390
L73690 77360
L73720 77340
L73720 77390
" />
<path d="M74000 77390
L74000 76800
L74140 76800
L74230 76830
L74280 76890
L74310 76940
L74340 77050
L74340 77140
L74310 77250
L74280 77310
L74230 77360
L74140 77390
L74000 77390
" />
<path d="M74590 77340
L74620 77360
L74590 77390
L74560 77360
L74590 77340
L74590 77390
" />
<path d="M74840 77220
L75120 77220
" />
<path d="M74790 77390
L74980 76800
L75180 77390
" />
<path d="M75380 77340
L75410 77360
L75380 77390
L75350 77360
L75380 77340
L75380 77390
" />
<path d="M76560 77390
L76560 76800
" />
<path d="M76620 77170
L76790 77390
" />
<path d="M76790 77000
L76560 77220
" />
<path d="M77040 77390
L77040 77000
" />
<path d="M77040 76800
L77010 76830
L77040 76860
L77070 76830
L77040 76800
L77040 76860
" />
<path d="M77570 77360
L77520 77390
L77400 77390
L77350 77360
L77320 77340
L77290 77280
L77290 77110
L77320 77050
L77350 77030
L77400 77000
L77520 77000
L77570 77030
" />
<path d="M78080 77390
L78080 77080
L78060 77030
L78000 77000
L77890 77000
L77830 77030
" />
<path d="M78080 77360
L78030 77390
L77890 77390
L77830 77360
L77800 77310
L77800 77250
L77830 77200
L77890 77170
L78030 77170
L78080 77140
" />
<path d="M78610 77390
L78610 76800
" />
<path d="M78610 77360
L78560 77390
L78440 77390
L78390 77360
L78360 77340
L78330 77280
L78330 77110
L78360 77050
L78390 77030
L78440 77000
L78560 77000
L78610 77030
" />
<path d="M79590 77000
L79590 77390
" />
<path d="M79450 76770
L79310 77200
L79680 77200
" />
<path d="M79900 77340
L79930 77360
L79900 77390
L79870 77360
L79900 77340
L79900 77390
" />
<path d="M80290 76800
L80350 76800
L80410 76830
L80430 76860
L80460 76910
L80490 77030
L80490 77170
L80460 77280
L80430 77340
L80410 77360
L80350 77390
L80290 77390
L80240 77360
L80210 77340
L80180 77280
L80150 77170
L80150 77030
L80180 76910
L80210 76860
L80240 76830
L80290 76800
" />
<path d="M80740 77340
L80770 77360
L80740 77390
L80710 77360
L80740 77340
L80740 77390
" />
<path d="M80990 76860
L81020 76830
L81080 76800
L81220 76800
L81270 76830
L81300 76860
L81330 76910
L81330 76970
L81300 77050
L80960 77390
L81330 77390
" />
<path d="M81580 77170
L82030 77170
" />
<path d="M82280 77360
L82340 77390
L82450 77390
L82510 77360
L82540 77310
L82540 77280
L82510 77220
L82450 77200
L82370 77200
L82310 77170
L82280 77110
L82280 77080
L82310 77030
L82370 77000
L82450 77000
L82510 77030
" />
<path d="M82710 77000
L82930 77000
" />
<path d="M82790 76800
L82790 77310
L82820 77360
L82870 77390
L82930 77390
" />
<path d="M83380 77390
L83380 77080
L83360 77030
L83300 77000
L83190 77000
L83130 77030
" />
<path d="M83380 77360
L83330 77390
L83190 77390
L83130 77360
L83100 77310
L83100 77250
L83130 77200
L83190 77170
L83330 77170
L83380 77140
" />
<path d="M83660 77390
L83660 76800
" />
<path d="M83660 77030
L83720 77000
L83830 77000
L83890 77030
L83910 77050
L83940 77110
L83940 77280
L83910 77340
L83890 77360
L83830 77390
L83720 77390
L83660 77360
" />
<path d="M84270 77390
L84220 77360
L84190 77310
L84190 76800
" />
<path d="M84730 77360
L84670 77390
L84560 77390
L84500 77360
L84470 77310
L84470 77080
L84500 77030
L84560 77000
L84670 77000
L84730 77030
L84750 77080
L84750 77140
L84470 77200
" />
</g>
<g style="fill:#840000; fill-opacity:0.0; 
stroke:#840000; stroke-width:100; stroke-opacity:1; 
stroke-linecap:round; stroke-linejoin:round;">
</g>
<g style="fill:#840000; fill-opacity:0.0; 
stroke:#840000; stroke-width:60; stroke-opacity:1; 
stroke-linecap:round; stroke-linejoin:round;">
<path d="M69690 75400
L112210 75400
" />
</g>
<g style="fill:#840000; fill-opacity:0.0; 
stroke:#840000; stroke-width:100; stroke-opacity:1; 
stroke-linecap:round; stroke-linejoin:round;">
</g>
<g style="fill:#840000; fill-opacity:0.0; 
stroke:#840000; stroke-width:120; stroke-opacity:1; 
stroke-linecap:round; stroke-linejoin:round;">
<path d="M104020 76290
L103820 76010
" />
<path d="M103680 76290
L103680 75700
L103910 75700
L103960 75730
L103990 75760
L104020 75810
L104020 75900
L103990 75950
L103960 75980
L103910 76010
L103680 76010
" />
<path d="M104500 76260
L104440 76290
L104330 76290
L104270 76260
L104240 76210
L104240 75980
L104270 75930
L104330 75900
L104440 75900
L104500 75930
L104520 75980
L104520 76040
L104240 76100
" />
<path d="M104720 75900
L104860 76290
L105010 75900
" />
<path d="M105230 76240
L105260 76260
L105230 76290
L105200 76260
L105230 76240
L105230 76290
" />
<path d="M105230 75930
L105260 75950
L105230 75980
L105200 75950
L105230 75930
L105230 75980
" />
<path d="M106270 76290
L105930 76290
" />
<path d="M106100 76290
L106100 75700
L106040 75790
L105990 75840
L105930 75870
" />
</g>
<g style="fill:#840000; fill-opacity:0.0; 
stroke:#840000; stroke-width:100; stroke-opacity:1; 
stroke-linecap:round; stroke-linejoin:round;">
</g>
<g style="fill:#840000; fill-opacity:0.0; 
stroke:#840000; stroke-width:60; stroke-opacity:1; 
stroke-linecap:round; stroke-linejoin:round;">
<path d="M70190 76260
L70280 76290
L70420 76290
L70470 76260
L70500 76240
L70530 76180
L70530 76120
L70500 76070
L70470 76040
L70420 76010
L70300 75980
L70250 75950
L70220 75930
L70190 75870
L70190 75810
L70220 75760
L70250 75730
L70300 75700
L70450 75700
L70530 75730
" />
<path d="M70780 76290
L70780 75900
" />
<path d="M70780 75700
L70750 75730
L70780 75760
L70810 75730
L70780 75700
L70780 75760
" />
<path d="M71000 75900
L71310 75900
L71000 76290
L71310 76290
" />
<path d="M71770 76260
L71710 76290
L71600 76290
L71540 76260
L71510 76210
L71510 75980
L71540 75930
L71600 75900
L71710 75900
L71770 75930
L71790 75980
L71790 76040
L71510 76100
" />
<path d="M72050 76240
L72080 76260
L72050 76290
L72020 76260
L72050 76240
L72050 76290
" />
<path d="M72050 75930
L72080 75950
L72050 75980
L72020 75950
L72050 75930
L72050 75980
" />
<path d="M72750 76120
L73030 76120
" />
<path d="M72700 76290
L72890 75700
L73090 76290
" />
<path d="M73540 75900
L73540 76290
" />
<path d="M73400 75670
L73260 76100
L73630 76100
" />
</g>
<g style="fill:#840000; fill-opacity:0.0; 
stroke:#840000; stroke-width:100; stroke-opacity:1; 
stroke-linecap:round; stroke-linejoin:round;">
</g>
<g style="fill:#840000; fill-opacity:0.0; 
stroke:#840000; stroke-width:60; stroke-opacity:1; 
stroke-linecap:round; stroke-linejoin:round;">
<path d="M103680 77390
L103680 76800
" />
<path d="M104210 77390
L104210 76800
" />
<path d="M104210 77360
L104160 77390
L104040 77390
L103990 77360
L103960 77340
L103930 77280
L103930 77110
L103960 77050
L103990 77030
L104040 77000
L104160 77000
L104210 77030
" />
<path d="M104490 77340
L104520 77360
L104490 77390
L104460 77360
L104490 77340
L104490 77390
" />
<path d="M104490 77030
L104520 77050
L104490 77080
L104460 77050
L104490 77030
L104490 77080
" />
<path d="M105530 77390
L105190 77390
" />
<path d="M105360 77390
L105360 76800
L105300 76890
L105250 76940
L105190 76970
" />
<path d="M106200 76770
L105700 77530
" />
<path d="M106710 77390
L106370 77390
" />
<path d="M106540 77390
L106540 76800
L106480 76890
L106430 76940
L106370 76970
" />
</g>
<g style="fill:#840000; fill-opacity:0.0; 
stroke:#840000; stroke-width:100; stroke-opacity:1; 
stroke-linecap:round; stroke-linejoin:round;">
</g>
<g style="fill:#840000; fill-opacity:0.0; 
stroke:#840000; stroke-width:60; stroke-opacity:1; 
stroke-linecap:round; stroke-linejoin:round;">
<path d="M69690 73820
L112210 73820
" />
</g>
<g style="fill:#840000; fill-opacity:0.0; 
stroke:#840000; stroke-width:100; stroke-opacity:1; 
stroke-linecap:round; stroke-linejoin:round;">
</g>
<g style="fill:#840000; fill-opacity:0.0; 
stroke:#840000; stroke-width:160; stroke-opacity:1; 
stroke-linecap:round; stroke-linejoin:round;">
<path d="M70260 74090
L70710 74090
" />
<path d="M70390 74880
L70480 74090
" />
<path d="M70880 74880
L70940 74360
" />
<path d="M70970 74090
L70930 74130
L70960 74170
L71010 74130
L70970 74090
L70960 74170
" />
<path d="M71210 74360
L71510 74360
" />
<path d="M71350 74090
L71270 74770
L71300 74840
L71370 74880
L71450 74880
" />
<path d="M71820 74880
L71750 74840
L71720 74770
L71800 74090
" />
<path d="M72420 74840
L72340 74880
L72190 74880
L72120 74840
L72090 74770
L72130 74470
L72180 74390
L72250 74360
L72400 74360
L72480 74390
L72510 74470
L72500 74540
L72110 74620
" />
<path d="M72800 74810
L72840 74840
L72800 74880
L72760 74840
L72800 74810
L72800 74880
" />
<path d="M72860 74390
L72890 74430
L72850 74470
L72810 74430
L72860 74390
L72850 74470
" />
<path d="M74090 74470
L73830 74470
" />
<path d="M73780 74880
L73870 74090
L74240 74090
" />
<path d="M74570 74880
L74500 74840
L74470 74770
L74550 74090
" />
<path d="M74870 74880
L74930 74360
" />
<path d="M74960 74090
L74920 74130
L74950 74170
L75000 74130
L74960 74090
L74950 74170
" />
<path d="M75310 74360
L75210 75150
" />
<path d="M75310 74390
L75380 74360
L75530 74360
L75610 74390
L75640 74430
L75660 74510
L75630 74730
L75590 74810
L75550 74840
L75470 74880
L75320 74880
L75250 74840
" />
<path d="M76300 74880
L76390 74090
" />
<path d="M76300 74840
L76220 74880
L76070 74880
L76000 74840
L75960 74810
L75930 74730
L75960 74510
L76010 74430
L76060 74390
L76130 74360
L76280 74360
L76360 74390
" />
<path d="M76780 74880
L76710 74840
L76670 74810
L76640 74730
L76670 74510
L76720 74430
L76770 74390
L76840 74360
L76950 74360
L77030 74390
L77060 74430
L77080 74510
L77050 74730
L77010 74810
L76970 74840
L76890 74880
L76780 74880
" />
<path d="M77330 74360
L77630 74360
" />
<path d="M77470 74090
L77390 74770
L77420 74840
L77490 74880
L77570 74880
" />
<path d="M78440 74090
L78540 74880
L78760 74320
L78840 74880
L79120 74090
" />
<path d="M79330 74880
L79390 74360
" />
<path d="M79420 74090
L79380 74130
L79410 74170
L79460 74130
L79420 74090
L79410 74170
" />
<path d="M79710 74880
L79770 74360
" />
<path d="M79750 74510
L79800 74430
L79840 74390
L79920 74360
L79990 74360
" />
<path d="M80200 74880
L80260 74360
" />
<path d="M80290 74090
L80250 74130
L80280 74170
L80330 74130
L80290 74090
L80280 74170
" />
<path d="M80640 74360
L80580 74880
" />
<path d="M80630 74430
L80680 74390
L80750 74360
L80860 74360
L80940 74390
L80970 74470
L80920 74880
" />
<path d="M81690 74360
L81610 75000
L81560 75070
L81520 75110
L81440 75150
L81320 75150
L81260 75110
" />
<path d="M81630 74840
L81550 74880
L81400 74880
L81330 74840
L81290 74810
L81260 74730
L81290 74510
L81340 74430
L81390 74390
L81460 74360
L81610 74360
L81690 74390
" />
<path d="M82650 74470
L82910 74470
" />
<path d="M82970 74880
L82600 74880
L82690 74090
L83060 74090
" />
<path d="M83230 74880
L83710 74360
" />
<path d="M83290 74360
L83650 74880
" />
<path d="M84290 74880
L84340 74470
L84310 74390
L84230 74360
L84080 74360
L84010 74390
" />
<path d="M84290 74840
L84210 74880
L84020 74880
L83950 74840
L83920 74770
L83930 74690
L83980 74620
L84050 74580
L84240 74580
L84330 74540
" />
<path d="M84660 74880
L84720 74360
" />
<path d="M84710 74430
L84760 74390
L84830 74360
L84940 74360
L85020 74390
L85050 74470
L85000 74880
" />
<path d="M85050 74470
L85090 74390
L85170 74360
L85280 74360
L85360 74390
L85390 74470
L85340 74880
" />
<path d="M85770 74360
L85670 75150
" />
<path d="M85770 74390
L85840 74360
L85990 74360
L86070 74390
L86100 74430
L86120 74510
L86090 74730
L86050 74810
L86010 74840
L85930 74880
L85780 74880
L85710 74840
" />
<path d="M86530 74880
L86460 74840
L86430 74770
L86510 74090
" />
<path d="M87130 74840
L87050 74880
L86900 74880
L86830 74840
L86800 74770
L86840 74470
L86890 74390
L86960 74360
L87110 74360
L87190 74390
L87220 74470
L87210 74540
L86820 74620
" />
</g>
<g style="fill:#840000; fill-opacity:0.0; 
stroke:#840000; stroke-width:100; stroke-opacity:1; 
stroke-linecap:round; stroke-linejoin:round;">
</g>
<g style="fill:#840000; fill-opacity:0.0; 
stroke:#840000; stroke-width:60; stroke-opacity:1; 
stroke-linecap:round; stroke-linejoin:round;">
<path d="M70420 73060
L70220 73060
" />
<path d="M70220 73370
L70220 72780
L70500 72780
" />
<path d="M70730 73370
L70730 72980
" />
<path d="M70730 72780
L70700 72810
L70730 72840
L70760 72810
L70730 72780
L70730 72840
" />
<path d="M71090 73370
L71040 73340
L71010 73290
L71010 72780
" />
<path d="M71550 73340
L71490 73370
L71380 73370
L71320 73340
L71290 73290
L71290 73060
L71320 73010
L71380 72980
L71490 72980
L71550 73010
L71570 73060
L71570 73120
L71290 73180
" />
<path d="M71830 73320
L71860 73340
L71830 73370
L71800 73340
L71830 73320
L71830 73370
" />
<path d="M71830 73010
L71860 73030
L71830 73060
L71800 73030
L71830 73010
L71830 73060
" />
<path d="M72760 73060
L72560 73060
" />
<path d="M72560 73370
L72560 72780
L72840 72780
" />
<path d="M73150 73370
L73100 73340
L73070 73290
L73070 72780
" />
<path d="M73380 73370
L73380 72980
" />
<path d="M73380 72780
L73350 72810
L73380 72840
L73410 72810
L73380 72780
L73380 72840
" />
<path d="M73660 72980
L73660 73570
" />
<path d="M73660 73010
L73720 72980
L73830 72980
L73890 73010
L73910 73030
L73940 73090
L73940 73260
L73910 73320
L73890 73340
L73830 73370
L73720 73370
L73660 73340
" />
<path d="M74440 73370
L74440 72780
" />
<path d="M74440 73340
L74390 73370
L74270 73370
L74220 73340
L74190 73320
L74160 73260
L74160 73090
L74190 73030
L74220 73010
L74270 72980
L74390 72980
L74440 73010
" />
<path d="M74800 73370
L74750 73340
L74720 73320
L74690 73260
L74690 73090
L74720 73030
L74750 73010
L74800 72980
L74890 72980
L74950 73010
L74970 73030
L75000 73090
L75000 73260
L74970 73320
L74950 73340
L74890 73370
L74800 73370
" />
<path d="M75170 72980
L75390 72980
" />
<path d="M75250 72780
L75250 73290
L75280 73340
L75330 73370
L75390 73370
" />
<path d="M75980 72780
L76120 73370
L76240 72950
L76350 73370
L76490 72780
" />
<path d="M76710 73370
L76710 72980
" />
<path d="M76710 72780
L76680 72810
L76710 72840
L76740 72810
L76710 72780
L76710 72840
" />
<path d="M76990 73370
L76990 72980
" />
<path d="M76990 73090
L77020 73030
L77050 73010
L77100 72980
L77160 72980
" />
<path d="M77360 73370
L77360 72980
" />
<path d="M77360 72780
L77330 72810
L77360 72840
L77390 72810
L77360 72780
L77360 72840
" />
<path d="M77640 72980
L77640 73370
" />
<path d="M77640 73030
L77670 73010
L77720 72980
L77810 72980
L77870 73010
L77890 73060
L77890 73370
" />
<path d="M78420 72980
L78420 73460
L78400 73510
L78370 73540
L78310 73570
L78230 73570
L78170 73540
" />
<path d="M78420 73340
L78370 73370
L78250 73370
L78200 73340
L78170 73320
L78140 73260
L78140 73090
L78170 73030
L78200 73010
L78250 72980
L78370 72980
L78420 73010
" />
<path d="M78700 73320
L78730 73340
L78700 73370
L78670 73340
L78700 73320
L78700 73370
" />
<path d="M78950 73340
L79010 73370
L79120 73370
L79180 73340
L79210 73290
L79210 73260
L79180 73200
L79120 73180
L79040 73180
L78980 73150
L78950 73090
L78950 73060
L78980 73010
L79040 72980
L79120 72980
L79180 73010
" />
<path d="M79710 73340
L79660 73370
L79540 73370
L79490 73340
L79460 73320
L79430 73260
L79430 73090
L79460 73030
L79490 73010
L79540 72980
L79660 72980
L79710 73010
" />
<path d="M79970 73370
L79970 72780
" />
<path d="M80220 73370
L80220 73060
L80200 73010
L80140 72980
L80050 72980
L80000 73010
L79970 73030
" />
</g>
<g style="fill:#840000; fill-opacity:0.0; 
stroke:#840000; stroke-width:100; stroke-opacity:1; 
stroke-linecap:round; stroke-linejoin:round;">
</g>
<g style="fill:#840000; fill-opacity:0.0; 
stroke:#840000; stroke-width:60; stroke-opacity:1; 
stroke-linecap:round; stroke-linejoin:round;">
<path d="M69690 71460
L112210 71460
" />
</g>
<g style="fill:#840000; fill-opacity:0.0; 
stroke:#840000; stroke-width:100; stroke-opacity:1; 
stroke-linecap:round; stroke-linejoin:round;">
</g>
<g style="fill:#840000; fill-opacity:0.0; 
stroke:#840000; stroke-width:60; stroke-opacity:1; 
stroke-linecap:round; stroke-linejoin:round;">
<path d="M70190 72280
L70280 72310
L70420 72310
L70470 72280
L70500 72260
L70530 72200
L70530 72140
L70500 72090
L70470 72060
L70420 72030
L70300 72000
L70250 71970
L70220 71950
L70190 71890
L70190 71830
L70220 71780
L70250 71750
L70300 71720
L70450 71720
L70530 71750
" />
<path d="M70780 72310
L70780 71720
" />
<path d="M71030 72310
L71030 72000
L71010 71950
L70950 71920
L70860 71920
L70810 71950
L70780 71970
" />
<path d="M71540 72280
L71480 72310
L71370 72310
L71310 72280
L71280 72230
L71280 72000
L71310 71950
L71370 71920
L71480 71920
L71540 71950
L71560 72000
L71560 72060
L71280 72120
" />
<path d="M72050 72280
L71990 72310
L71880 72310
L71820 72280
L71790 72230
L71790 72000
L71820 71950
L71880 71920
L71990 71920
L72050 71950
L72070 72000
L72070 72060
L71790 72120
" />
<path d="M72250 71920
L72470 71920
" />
<path d="M72330 71720
L72330 72230
L72360 72280
L72410 72310
L72470 72310
" />
<path d="M72670 72260
L72700 72280
L72670 72310
L72640 72280
L72670 72260
L72670 72310
" />
<path d="M72670 71950
L72700 71970
L72670 72000
L72640 71970
L72670 71950
L72670 72000
" />
<path d="M73820 71690
L73320 72450
" />
</g>
<g style="fill:#840000; fill-opacity:0.0; 
stroke:#840000; stroke-width:100; stroke-opacity:1; 
stroke-linecap:round; stroke-linejoin:round;">
</g>
<g style="fill:#840000; fill-opacity:0.0; 
stroke:#840000; stroke-width:120; stroke-opacity:1; 
stroke-linecap:round; stroke-linejoin:round;">
<path d="M70420 70820
L70220 70820
" />
<path d="M70220 71130
L70220 70540
L70500 70540
" />
<path d="M70810 71130
L70760 71100
L70730 71050
L70730 70540
" />
<path d="M71040 71130
L71040 70740
" />
<path d="M71040 70540
L71010 70570
L71040 70600
L71070 70570
L71040 70540
L71040 70600
" />
<path d="M71320 70740
L71320 71330
" />
<path d="M71320 70770
L71380 70740
L71490 70740
L71550 70770
L71570 70790
L71600 70850
L71600 71020
L71570 71080
L71550 71100
L71490 71130
L71380 71130
L71320 71100
" />
<path d="M71850 70910
L72300 70910
" />
<path d="M72500 70540
L72830 70540
" />
<path d="M72660 71130
L72660 70540
" />
<path d="M73030 71130
L73030 70540
" />
<path d="M73280 71130
L73280 70820
L73260 70770
L73200 70740
L73110 70740
L73060 70770
L73030 70790
" />
<path d="M73790 71100
L73730 71130
L73620 71130
L73560 71100
L73530 71050
L73530 70820
L73560 70770
L73620 70740
L73730 70740
L73790 70770
L73810 70820
L73810 70880
L73530 70940
" />
<path d="M74070 70910
L74520 70910
" />
<path d="M74800 71130
L74800 70540
L74940 70540
L75030 70570
L75080 70630
L75110 70680
L75140 70790
L75140 70880
L75110 70990
L75080 71050
L75030 71100
L74940 71130
L74800 71130
" />
<path d="M75470 71130
L75420 71100
L75390 71080
L75360 71020
L75360 70850
L75390 70790
L75420 70770
L75470 70740
L75560 70740
L75620 70770
L75640 70790
L75670 70850
L75670 71020
L75640 71080
L75620 71100
L75560 71130
L75470 71130
" />
<path d="M75840 70740
L76060 70740
" />
<path d="M75920 70540
L75920 71050
L75950 71100
L76000 71130
L76060 71130
" />
</g>
<g style="fill:#840000; fill-opacity:0.0; 
stroke:#840000; stroke-width:100; stroke-opacity:1; 
stroke-linecap:round; stroke-linejoin:round;">
</g>
<g style="fill:#840000; fill-opacity:0.0; 
stroke:#840000; stroke-width:60; stroke-opacity:1; 
stroke-linecap:round; stroke-linejoin:round;">
<path d="M77560 75400
L77560 76580
" />
</g>
<g style="fill:#840000; fill-opacity:0.0; 
stroke:#840000; stroke-width:100; stroke-opacity:1; 
stroke-linecap:round; stroke-linejoin:round;">
</g>
<g style="fill:#840000; fill-opacity:0.0; 
stroke:#840000; stroke-width:60; stroke-opacity:1; 
stroke-linecap:round; stroke-linejoin:round;">
<path d="M102760 75400
L102760 77960
" />
</g>
<g style="fill:#840000; fill-opacity:0.0; 
stroke:#840000; stroke-width:0; stroke-opacity:1; 
stroke-linecap:round; stroke-linejoin:round;">
</g>
<g style="fill:#840000; fill-opacity:0.0; 
stroke:#840000; stroke-width:60; stroke-opacity:1; 
stroke-linecap:round; stroke-linejoin:round;">
<polyline fill="none;"
points="49500,25000
50500,25000
" /> 
</g>
<g style="fill:#840000; fill-opacity:1.0; 
stroke:#840000; stroke-width:60; stroke-opacity:1; 
stroke-linecap:round; stroke-linejoin:round;">
<polyline style="fill-rule:evenodd;"
points="49500,24000
50000,25000
50500,24000
" /> 
</g>
<g style="fill:#840000; fill-opacity:0.0; 
stroke:#840000; stroke-width:60; stroke-opacity:1; 
stroke-linecap:round; stroke-linejoin:round;">
<path d="M50000 25000
L50000 26000
" />
<path d="M50000 24000
L50000 23000
" />
</g>
<g style="fill:#008484; fill-opacity:0.0; 
stroke:#008484; stroke-width:60; stroke-opacity:1; 
stroke-linecap:round; stroke-linejoin:round;">
<path d="M49200 24870
L48700 24870
L48700 24750
L48720 24680
L48770 24630
L48820 24610
L48910 24590
L48980 24590
L49080 24610
L49120 24630
L49170 24680
L49200 24750
L49200 24870
" />
<path d="M49200 24110
L49200 24390
" />
<path d="M49200 24250
L48700 24250
L48770 24300
L48820 24350
L48840 24390
" />
<path d="M51200 24630
L50700 24630
L50700 24510
L50720 24440
L50770 24390
L50820 24370
L50910 24350
L50980 24350
L51080 24370
L51120 24390
L51170 24440
L51200 24510
L51200 24630
" />
</g>
<g style="fill:#008484; fill-opacity:0.0; 
stroke:#008484; stroke-width:0; stroke-opacity:1; 
stroke-linecap:round; stroke-linejoin:round;">
</g>
<g style="fill:#840000; fill-opacity:0.0; 
stroke:#840000; stroke-width:0; stroke-opacity:1; 
stroke-linecap:round; stroke-linejoin:round;">
</g>
<g style="fill:#840000; fill-opacity:0.0; 
stroke:#840000; stroke-width:60; stroke-opacity:1; 
stroke-linecap:round; stroke-linejoin:round;">
<polyline fill="none;"
points="49500,30000
50500,30000
" /> 
</g>
<g style="fill:#840000; fill-opacity:1.0; 
stroke:#840000; stroke-width:60; stroke-opacity:1; 
stroke-linecap:round; stroke-linejoin:round;">
<polyline style="fill-rule:evenodd;"
points="49500,29000
50000,30000
50500,29000
" /> 
</g>
<g style="fill:#840000; fill-opacity:0.0; 
stroke:#840000; stroke-width:60; stroke-opacity:1; 
stroke-linecap:round; stroke-linejoin:round;">
<path d="M50000 30000
L50000 31000
" />
<path d="M50000 29000
L50000 28000
" />
</g>
<g style="fill:#008484; fill-opacity:0.0; 
stroke:#008484; stroke-width:60; stroke-opacity:1; 
stroke-linecap:round; stroke-linejoin:round;">
<path d="M49200 29870
L48700 29870
L48700 29750
L48720 29680
L48770 29630
L48820 29610
L48910 29590
L48980 29590
L49080 29610
L49120 29630
L49170 29680
L49200 29750
L49200 29870
" />
<path d="M48740 29390
L48720 29370
L48700 29320
L48700 29200
L48720 29160
L48740 29130
L48790 29110
L48840 29110
L48910 29130
L49200 29420
L49200 29110
" />
<path d="M51200 29630
L50700 29630
L50700 29510
L50720 29440
L50770 29390
L50820 29370
L50910 29350
L50980 29350
L51080 29370
L51120 29390
L51170 29440
L51200 29510
L51200 29630
" />
</g>
<g style="fill:#008484; fill-opacity:0.0; 
stroke:#008484; stroke-width:0; stroke-opacity:1; 
stroke-linecap:round; stroke-linejoin:round;">
</g>
<g style="fill:#840000; fill-opacity:0.0; 
stroke:#840000; stroke-width:0; stroke-opacity:1; 
stroke-linecap:round; stroke-linejoin:round;">
</g>
<g style="fill:#840000; fill-opacity:0.0; 
stroke:#840000; stroke-width:60; stroke-opacity:1; 
stroke-linecap:round; stroke-linejoin:round;">
<path d="M47999.9 26990.4 A500 500 0.0 0 0 47000.1 26990.4 " />
<path d="M46999.9 26990.2 A510 510 0.0 0 0 45980.1 26990.2 " />
<path d="M45999.9 26990.2 A510 510 0.0 0 0 44980.1 26990.2 " />
<path d="M44999.9 26990.8 A480 480 0.0 0 0 44040.1 26990.8 " />
<path d="M44000 27000
L43000 27000
" />
<path d="M48000 27000
L49000 27000
" />
</g>
<g style="fill:#008484; fill-opacity:0.0; 
stroke:#008484; stroke-width:60; stroke-opacity:1; 
stroke-linecap:round; stroke-linejoin:round;">
<path d="M45920 27760
L45680 27760
L45680 27260
" />
<path d="M46340 27760
L46060 27760
" />
<path d="M46200 27760
L46200 27260
L46150 27330
L46100 27380
L46060 27400
" />
<path d="M44280 26260
L44280 25760
" />
<path d="M44520 26260
L44520 25760
L44800 26260
L44800 25760
" />
<path d="M45040 26260
L45040 25760
L45160 25760
L45230 25780
L45280 25830
L45300 25880
L45320 25970
L45320 26040
L45300 26140
L45280 26180
L45230 26230
L45160 26260
L45040 26260
" />
<path d="M45540 25760
L45540 26160
L45560 26210
L45590 26230
L45630 26260
L45730 26260
L45780 26230
L45800 26210
L45820 26160
L45820 25760
" />
<path d="M46340 26210
L46320 26230
L46250 26260
L46200 26260
L46130 26230
L46080 26180
L46060 26140
L46040 26040
L46040 25970
L46060 25880
L46080 25830
L46130 25780
L46200 25760
L46250 25760
L46320 25780
L46340 25800
" />
<path d="M46490 25760
L46770 25760
" />
<path d="M46630 26260
L46630 25760
" />
<path d="M47030 25760
L47130 25760
L47180 25780
L47220 25830
L47250 25920
L47250 26090
L47220 26180
L47180 26230
L47130 26260
L47030 26260
L46990 26230
L46940 26180
L46920 26090
L46920 25920
L46940 25830
L46990 25780
L47030 25760
" />
<path d="M47740 26260
L47580 26020
" />
<path d="M47460 26260
L47460 25760
L47650 25760
L47700 25780
L47720 25800
L47740 25850
L47740 25920
L47720 25970
L47700 25990
L47650 26020
L47460 26020
" />
</g>
<g style="fill:#008484; fill-opacity:0.0; 
stroke:#008484; stroke-width:0; stroke-opacity:1; 
stroke-linecap:round; stroke-linejoin:round;">
</g>
<g style="fill:#840000; fill-opacity:0.0; 
stroke:#840000; stroke-width:0; stroke-opacity:1; 
stroke-linecap:round; stroke-linejoin:round;">
</g>
<g style="fill:#840000; fill-opacity:0.0; 
stroke:#840000; stroke-width:60; stroke-opacity:1; 
stroke-linecap:round; stroke-linejoin:round;">
<polyline fill="none;"
points="63500,25000
64500,25000
" /> 
</g>
<g style="fill:#840000; fill-opacity:1.0; 
stroke:#840000; stroke-width:60; stroke-opacity:1; 
stroke-linecap:round; stroke-linejoin:round;">
<polyline style="fill-rule:evenodd;"
points="63500,24000
64000,25000
64500,24000
" /> 
</g>
<g style="fill:#840000; fill-opacity:0.0; 
stroke:#840000; stroke-width:60; stroke-opacity:1; 
stroke-linecap:round; stroke-linejoin:round;">
<path d="M64000 25000
L64000 26000
" />
<path d="M64000 24000
L64000 23000
" />
</g>
<g style="fill:#008484; fill-opacity:0.0; 
stroke:#008484; stroke-width:60; stroke-opacity:1; 
stroke-linecap:round; stroke-linejoin:round;">
<path d="M63200 24870
L62700 24870
L62700 24750
L62720 24680
L62770 24630
L62820 24610
L62910 24590
L62980 24590
L63080 24610
L63120 24630
L63170 24680
L63200 24750
L63200 24870
" />
<path d="M62700 24130
L62700 24370
L62930 24390
L62910 24370
L62890 24320
L62890 24200
L62910 24160
L62930 24130
L62980 24110
L63100 24110
L63150 24130
L63170 24160
L63200 24200
L63200 24320
L63170 24370
L63150 24390
" />
<path d="M65200 24630
L64700 24630
L64700 24510
L64720 24440
L64770 24390
L64820 24370
L64910 24350
L64980 24350
L65080 24370
L65120 24390
L65170 24440
L65200 24510
L65200 24630
" />
</g>
<g style="fill:#008484; fill-opacity:0.0; 
stroke:#008484; stroke-width:0; stroke-opacity:1; 
stroke-linecap:round; stroke-linejoin:round;">
</g>
<g style="fill:#840000; fill-opacity:0.0; 
stroke:#840000; stroke-width:0; stroke-opacity:1; 
stroke-linecap:round; stroke-linejoin:round;">
</g>
<g style="fill:#840000; fill-opacity:0.0; 
stroke:#840000; stroke-width:60; stroke-opacity:1; 
stroke-linecap:round; stroke-linejoin:round;">
<polyline fill="none;"
points="63500,30000
64500,30000
" /> 
</g>
<g style="fill:#840000; fill-opacity:1.0; 
stroke:#840000; stroke-width:60; stroke-opacity:1; 
stroke-linecap:round; stroke-linejoin:round;">
<polyline style="fill-rule:evenodd;"
points="63500,29000
64000,30000
64500,29000
" /> 
</g>
<g style="fill:#840000; fill-opacity:0.0; 
stroke:#840000; stroke-width:60; stroke-opacity:1; 
stroke-linecap:round; stroke-linejoin:round;">
<path d="M64000 30000
L64000 31000
" />
<path d="M64000 29000
L64000 28000
" />
</g>
<g style="fill:#008484; fill-opacity:0.0; 
stroke:#008484; stroke-width:60; stroke-opacity:1; 
stroke-linecap:round; stroke-linejoin:round;">
<path d="M63200 29870
L62700 29870
L62700 29750
L62720 29680
L62770 29630
L62820 29610
L62910 29590
L62980 29590
L63080 29610
L63120 29630
L63170 29680
L63200 29750
L63200 29870
" />
<path d="M62700 29160
L62700 29250
L62720 29300
L62740 29320
L62820 29370
L62910 29390
L63100 29390
L63150 29370
L63170 29350
L63200 29300
L63200 29200
L63170 29160
L63150 29130
L63100 29110
L62980 29110
L62930 29130
L62910 29160
L62890 29200
L62890 29300
L62910 29350
L62930 29370
L62980 29390
" />
<path d="M65200 29630
L64700 29630
L64700 29510
L64720 29440
L64770 29390
L64820 29370
L64910 29350
L64980 29350
L65080 29370
L65120 29390
L65170 29440
L65200 29510
L65200 29630
" />
</g>
<g style="fill:#008484; fill-opacity:0.0; 
stroke:#008484; stroke-width:0; stroke-opacity:1; 
stroke-linecap:round; stroke-linejoin:round;">
</g>
<g style="fill:#840000; fill-opacity:0.0; 
stroke:#840000; stroke-width:0; stroke-opacity:1; 
stroke-linecap:round; stroke-linejoin:round;">
</g>
<g style="fill:#840000; fill-opacity:0.0; 
stroke:#840000; stroke-width:60; stroke-opacity:1; 
stroke-linecap:round; stroke-linejoin:round;">
<path d="M61999.9 26990.4 A500 500 0.0 0 0 61000.1 26990.4 " />
<path d="M60999.9 26990.2 A510 510 0.0 0 0 59980.1 26990.2 " />
<path d="M59999.9 26990.2 A510 510 0.0 0 0 58980.1 26990.2 " />
<path d="M58999.9 26990.8 A480 480 0.0 0 0 58040.1 26990.8 " />
<path d="M58000 27000
L57000 27000
" />
<path d="M62000 27000
L63000 27000
" />
</g>
<g style="fill:#008484; fill-opacity:0.0; 
stroke:#008484; stroke-width:60; stroke-opacity:1; 
stroke-linecap:round; stroke-linejoin:round;">
<path d="M59920 27760
L59680 27760
L59680 27260
" />
<path d="M60030 27260
L60340 27260
L60170 27450
L60250 27450
L60290 27470
L60320 27490
L60340 27540
L60340 27660
L60320 27710
L60290 27730
L60250 27760
L60100 27760
L60060 27730
L60030 27710
" />
<path d="M58280 26260
L58280 25760
" />
<path d="M58520 26260
L58520 25760
L58800 26260
L58800 25760
" />
<path d="M59040 26260
L59040 25760
L59160 25760
L59230 25780
L59280 25830
L59300 25880
L59320 25970
L59320 26040
L59300 26140
L59280 26180
L59230 26230
L59160 26260
L59040 26260
" />
<path d="M59540 25760
L59540 26160
L59560 26210
L59590 26230
L59630 26260
L59730 26260
L59780 26230
L59800 26210
L59820 26160
L59820 25760
" />
<path d="M60340 26210
L60320 26230
L60250 26260
L60200 26260
L60130 26230
L60080 26180
L60060 26140
L60040 26040
L60040 25970
L60060 25880
L60080 25830
L60130 25780
L60200 25760
L60250 25760
L60320 25780
L60340 25800
" />
<path d="M60490 25760
L60770 25760
" />
<path d="M60630 26260
L60630 25760
" />
<path d="M61030 25760
L61130 25760
L61180 25780
L61220 25830
L61250 25920
L61250 26090
L61220 26180
L61180 26230
L61130 26260
L61030 26260
L60990 26230
L60940 26180
L60920 26090
L60920 25920
L60940 25830
L60990 25780
L61030 25760
" />
<path d="M61740 26260
L61580 26020
" />
<path d="M61460 26260
L61460 25760
L61650 25760
L61700 25780
L61720 25800
L61740 25850
L61740 25920
L61720 25970
L61700 25990
L61650 26020
L61460 26020
" />
</g>
<g style="fill:#008484; fill-opacity:0.0; 
stroke:#008484; stroke-width:0; stroke-opacity:1; 
stroke-linecap:round; stroke-linejoin:round;">
</g>
<g style="fill:#840000; fill-opacity:0.0; 
stroke:#840000; stroke-width:0; stroke-opacity:1; 
stroke-linecap:round; stroke-linejoin:round;">
</g>
<g style="fill:#840000; fill-opacity:0.0; 
stroke:#840000; stroke-width:60; stroke-opacity:1; 
stroke-linecap:round; stroke-linejoin:round;">
<polyline fill="none;"
points="49500,40000
50500,40000
" /> 
</g>
<g style="fill:#840000; fill-opacity:1.0; 
stroke:#840000; stroke-width:60; stroke-opacity:1; 
stroke-linecap:round; stroke-linejoin:round;">
<polyline style="fill-rule:evenodd;"
points="49500,39000
50000,40000
50500,39000
" /> 
</g>
<g style="fill:#840000; fill-opacity:0.0; 
stroke:#840000; stroke-width:60; stroke-opacity:1; 
stroke-linecap:round; stroke-linejoin:round;">
<path d="M50000 40000
L50000 41000
" />
<path d="M50000 39000
L50000 38000
" />
</g>
<g style="fill:#008484; fill-opacity:0.0; 
stroke:#008484; stroke-width:60; stroke-opacity:1; 
stroke-linecap:round; stroke-linejoin:round;">
<path d="M49200 39870
L48700 39870
L48700 39750
L48720 39680
L48770 39630
L48820 39610
L48910 39590
L48980 39590
L49080 39610
L49120 39630
L49170 39680
L49200 39750
L49200 39870
" />
<path d="M48700 39420
L48700 39110
L48890 39280
L48890 39200
L48910 39160
L48930 39130
L48980 39110
L49100 39110
L49150 39130
L49170 39160
L49200 39200
L49200 39350
L49170 39390
L49150 39420
" />
<path d="M51200 39630
L50700 39630
L50700 39510
L50720 39440
L50770 39390
L50820 39370
L50910 39350
L50980 39350
L51080 39370
L51120 39390
L51170 39440
L51200 39510
L51200 39630
" />
</g>
<g style="fill:#008484; fill-opacity:0.0; 
stroke:#008484; stroke-width:0; stroke-opacity:1; 
stroke-linecap:round; stroke-linejoin:round;">
</g>
<g style="fill:#840000; fill-opacity:0.0; 
stroke:#840000; stroke-width:0; stroke-opacity:1; 
stroke-linecap:round; stroke-linejoin:round;">
</g>
<g style="fill:#840000; fill-opacity:0.0; 
stroke:#840000; stroke-width:60; stroke-opacity:1; 
stroke-linecap:round; stroke-linejoin:round;">
<polyline fill="none;"
points="49500,45000
50500,45000
" /> 
</g>
<g style="fill:#840000; fill-opacity:1.0; 
stroke:#840000; stroke-width:60; stroke-opacity:1; 
stroke-linecap:round; stroke-linejoin:round;">
<polyline style="fill-rule:evenodd;"
points="49500,44000
50000,45000
50500,44000
" /> 
</g>
<g style="fill:#840000; fill-opacity:0.0; 
stroke:#840000; stroke-width:60; stroke-opacity:1; 
stroke-linecap:round; stroke-linejoin:round;">
<path d="M50000 45000
L50000 46000
" />
<path d="M50000 44000
L50000 43000
" />
</g>
<g style="fill:#008484; fill-opacity:0.0; 
stroke:#008484; stroke-width:60; stroke-opacity:1; 
stroke-linecap:round; stroke-linejoin:round;">
<path d="M49200 44870
L48700 44870
L48700 44750
L48720 44680
L48770 44630
L48820 44610
L48910 44590
L48980 44590
L49080 44610
L49120 44630
L49170 44680
L49200 44750
L49200 44870
" />
<path d="M48860 44160
L49200 44160
" />
<path d="M48670 44280
L49030 44390
L49030 44090
" />
<path d="M51200 44630
L50700 44630
L50700 44510
L50720 44440
L50770 44390
L50820 44370
L50910 44350
L50980 44350
L51080 44370
L51120 44390
L51170 44440
L51200 44510
L51200 44630
" />
</g>
<g style="fill:#008484; fill-opacity:0.0; 
stroke:#008484; stroke-width:0; stroke-opacity:1; 
stroke-linecap:round; stroke-linejoin:round;">
</g>
<g style="fill:#840000; fill-opacity:0.0; 
stroke:#840000; stroke-width:0; stroke-opacity:1; 
stroke-linecap:round; stroke-linejoin:round;">
</g>
<g style="fill:#840000; fill-opacity:0.0; 
stroke:#840000; stroke-width:60; stroke-opacity:1; 
stroke-linecap:round; stroke-linejoin:round;">
<path d="M47999.9 41990.4 A500 500 0.0 0 0 47000.1 41990.4 " />
<path d="M46999.9 41990.2 A510 510 0.0 0 0 45980.1 41990.2 " />
<path d="M45999.9 41990.2 A510 510 0.0 0 0 44980.1 41990.2 " />
<path d="M44999.9 41990.8 A480 480 0.0 0 0 44040.1 41990.8 " />
<path d="M44000 42000
L43000 42000
" />
<path d="M48000 42000
L49000 42000
" />
</g>
<g style="fill:#008484; fill-opacity:0.0; 
stroke:#008484; stroke-width:60; stroke-opacity:1; 
stroke-linecap:round; stroke-linejoin:round;">
<path d="M45920 42760
L45680 42760
L45680 42260
" />
<path d="M46060 42300
L46080 42280
L46130 42260
L46250 42260
L46290 42280
L46320 42300
L46340 42350
L46340 42400
L46320 42470
L46030 42760
L46340 42760
" />
<path d="M44280 41260
L44280 40760
" />
<path d="M44520 41260
L44520 40760
L44800 41260
L44800 40760
" />
<path d="M45040 41260
L45040 40760
L45160 40760
L45230 40780
L45280 40830
L45300 40880
L45320 40970
L45320 41040
L45300 41140
L45280 41180
L45230 41230
L45160 41260
L45040 41260
" />
<path d="M45540 40760
L45540 41160
L45560 41210
L45590 41230
L45630 41260
L45730 41260
L45780 41230
L45800 41210
L45820 41160
L45820 40760
" />
<path d="M46340 41210
L46320 41230
L46250 41260
L46200 41260
L46130 41230
L46080 41180
L46060 41140
L46040 41040
L46040 40970
L46060 40880
L46080 40830
L46130 40780
L46200 40760
L46250 40760
L46320 40780
L46340 40800
" />
<path d="M46490 40760
L46770 40760
" />
<path d="M46630 41260
L46630 40760
" />
<path d="M47030 40760
L47130 40760
L47180 40780
L47220 40830
L47250 40920
L47250 41090
L47220 41180
L47180 41230
L47130 41260
L47030 41260
L46990 41230
L46940 41180
L46920 41090
L46920 40920
L46940 40830
L46990 40780
L47030 40760
" />
<path d="M47740 41260
L47580 41020
" />
<path d="M47460 41260
L47460 40760
L47650 40760
L47700 40780
L47720 40800
L47740 40850
L47740 40920
L47720 40970
L47700 40990
L47650 41020
L47460 41020
" />
</g>
<g style="fill:#008484; fill-opacity:0.0; 
stroke:#008484; stroke-width:0; stroke-opacity:1; 
stroke-linecap:round; stroke-linejoin:round;">
</g>
<g style="fill:#840000; fill-opacity:0.0; 
stroke:#840000; stroke-width:0; stroke-opacity:1; 
stroke-linecap:round; stroke-linejoin:round;">
</g>
<g style="fill:#840000; fill-opacity:0.0; 
stroke:#840000; stroke-width:60; stroke-opacity:1; 
stroke-linecap:round; stroke-linejoin:round;">
<polyline fill="none;"
points="63500,40000
64500,40000
" /> 
</g>
<g style="fill:#840000; fill-opacity:1.0; 
stroke:#840000; stroke-width:60; stroke-opacity:1; 
stroke-linecap:round; stroke-linejoin:round;">
<polyline style="fill-rule:evenodd;"
points="63500,39000
64000,40000
64500,39000
" /> 
</g>
<g style="fill:#840000; fill-opacity:0.0; 
stroke:#840000; stroke-width:60; stroke-opacity:1; 
stroke-linecap:round; stroke-linejoin:round;">
<path d="M64000 40000
L64000 41000
" />
<path d="M64000 39000
L64000 38000
" />
</g>
<g style="fill:#008484; fill-opacity:0.0; 
stroke:#008484; stroke-width:60; stroke-opacity:1; 
stroke-linecap:round; stroke-linejoin:round;">
<path d="M63200 39870
L62700 39870
L62700 39750
L62720 39680
L62770 39630
L62820 39610
L62910 39590
L62980 39590
L63080 39610
L63120 39630
L63170 39680
L63200 39750
L63200 39870
" />
<path d="M62700 39420
L62700 39090
L63200 39300
" />
<path d="M65200 39630
L64700 39630
L64700 39510
L64720 39440
L64770 39390
L64820 39370
L64910 39350
L64980 39350
L65080 39370
L65120 39390
L65170 39440
L65200 39510
L65200 39630
" />
</g>
<g style="fill:#008484; fill-opacity:0.0; 
stroke:#008484; stroke-width:0; stroke-opacity:1; 
stroke-linecap:round; stroke-linejoin:round;">
</g>
<g style="fill:#840000; fill-opacity:0.0; 
stroke:#840000; stroke-width:0; stroke-opacity:1; 
stroke-linecap:round; stroke-linejoin:round;">
</g>
<g style="fill:#840000; fill-opacity:0.0; 
stroke:#840000; stroke-width:60; stroke-opacity:1; 
stroke-linecap:round; stroke-linejoin:round;">
<polyline fill="none;"
points="63500,45000
64500,45000
" /> 
</g>
<g style="fill:#840000; fill-opacity:1.0; 
stroke:#840000; stroke-width:60; stroke-opacity:1; 
stroke-linecap:round; stroke-linejoin:round;">
<polyline style="fill-rule:evenodd;"
points="63500,44000
64000,45000
64500,44000
" /> 
</g>
<g style="fill:#840000; fill-opacity:0.0; 
stroke:#840000; stroke-width:60; stroke-opacity:1; 
stroke-linecap:round; stroke-linejoin:round;">
<path d="M64000 45000
L64000 46000
" />
<path d="M64000 44000
L64000 43000
" />
</g>
<g style="fill:#008484; fill-opacity:0.0; 
stroke:#008484; stroke-width:60; stroke-opacity:1; 
stroke-linecap:round; stroke-linejoin:round;">
<path d="M63200 44870
L62700 44870
L62700 44750
L62720 44680
L62770 44630
L62820 44610
L62910 44590
L62980 44590
L63080 44610
L63120 44630
L63170 44680
L63200 44750
L63200 44870
" />
<path d="M62910 44300
L62890 44350
L62860 44370
L62820 44390
L62790 44390
L62740 44370
L62720 44350
L62700 44300
L62700 44200
L62720 44160
L62740 44130
L62790 44110
L62820 44110
L62860 44130
L62890 44160
L62910 44200
L62910 44300
L62930 44350
L62960 44370
L63010 44390
L63100 44390
L63150 44370
L63170 44350
L63200 44300
L63200 44200
L63170 44160
L63150 44130
L63100 44110
L63010 44110
L62960 44130
L62930 44160
L62910 44200
" />
<path d="M65200 44630
L64700 44630
L64700 44510
L64720 44440
L64770 44390
L64820 44370
L64910 44350
L64980 44350
L65080 44370
L65120 44390
L65170 44440
L65200 44510
L65200 44630
" />
</g>
<g style="fill:#008484; fill-opacity:0.0; 
stroke:#008484; stroke-width:0; stroke-opacity:1; 
stroke-linecap:round; stroke-linejoin:round;">
</g>
<g style="fill:#840000; fill-opacity:0.0; 
stroke:#840000; stroke-width:0; stroke-opacity:1; 
stroke-linecap:round; stroke-linejoin:round;">
</g>
<g style="fill:#840000; fill-opacity:0.0; 
stroke:#840000; stroke-width:60; stroke-opacity:1; 
stroke-linecap:round; stroke-linejoin:round;">
<path d="M61999.9 41990.4 A500 500 0.0 0 0 61000.1 41990.4 " />
<path d="M60999.9 41990.2 A510 510 0.0 0 0 59980.1 41990.2 " />
<path d="M59999.9 41990.2 A510 510 0.0 0 0 58980.1 41990.2 " />
<path d="M58999.9 41990.8 A480 480 0.0 0 0 58040.1 41990.8 " />
<path d="M58000 42000
L57000 42000
" />
<path d="M62000 42000
L63000 42000
" />
</g>
<g style="fill:#008484; fill-opacity:0.0; 
stroke:#008484; stroke-width:60; stroke-opacity:1; 
stroke-linecap:round; stroke-linejoin:round;">
<path d="M59920 42760
L59680 42760
L59680 42260
" />
<path d="M60290 42420
L60290 42760
" />
<path d="M60170 42230
L60060 42590
L60360 42590
" />
<path d="M58280 41260
L58280 40760
" />
<path d="M58520 41260
L58520 40760
L58800 41260
L58800 40760
" />
<path d="M59040 41260
L59040 40760
L59160 40760
L59230 40780
L59280 40830
L59300 40880
L59320 40970
L59320 41040
L59300 41140
L59280 41180
L59230 41230
L59160 41260
L59040 41260
" />
<path d="M59540 40760
L59540 41160
L59560 41210
L59590 41230
L59630 41260
L59730 41260
L59780 41230
L59800 41210
L59820 41160
L59820 40760
" />
<path d="M60340 41210
L60320 41230
L60250 41260
L60200 41260
L60130 41230
L60080 41180
L60060 41140
L60040 41040
L60040 40970
L60060 40880
L60080 40830
L60130 40780
L60200 40760
L60250 40760
L60320 40780
L60340 40800
" />
<path d="M60490 40760
L60770 40760
" />
<path d="M60630 41260
L60630 40760
" />
<path d="M61030 40760
L61130 40760
L61180 40780
L61220 40830
L61250 40920
L61250 41090
L61220 41180
L61180 41230
L61130 41260
L61030 41260
L60990 41230
L60940 41180
L60920 41090
L60920 40920
L60940 40830
L60990 40780
L61030 40760
" />
<path d="M61740 41260
L61580 41020
" />
<path d="M61460 41260
L61460 40760
L61650 40760
L61700 40780
L61720 40800
L61740 40850
L61740 40920
L61720 40970
L61700 40990
L61650 41020
L61460 41020
" />
</g>
<g style="fill:#008400; fill-opacity:0.0; 
stroke:#008400; stroke-width:60; stroke-opacity:1; 
stroke-linecap:round; stroke-linejoin:round;">
<path d="M50000 26000
L50000 28000
" />
<path d="M49000 27000
L50000 27000
" />
</g>
<g style="fill:#008400; fill-opacity:0.0; 
stroke:#008400; stroke-width:0; stroke-opacity:1; 
stroke-linecap:round; stroke-linejoin:round;">
</g>
<g style="fill:#008400; fill-opacity:1.0; 
stroke:#008400; stroke-width:100; stroke-opacity:1; 
stroke-linecap:round; stroke-linejoin:round;">
<circle cx="50000" cy="27000" r="200" /> 
</g>
<g style="fill:#008400; fill-opacity:1.0; 
stroke:#008400; stroke-width:60; stroke-opacity:1; 
stroke-linecap:round; stroke-linejoin:round;">
</g>
<g style="fill:#008400; fill-opacity:0.0; 
stroke:#008400; stroke-width:60; stroke-opacity:1; 
stroke-linecap:round; stroke-linejoin:round;">
<path d="M43000 27000
L42000 27000
" />
<path d="M42000 27000
L42000 52000
" />
<path d="M50000 31000
L50000 32000
" />
<path d="M50000 32000
L70000 32000
" />
<path d="M50000 23000
L50000 22000
" />
<path d="M50000 22000
L70000 22000
" />
<path d="M64000 26000
L64000 28000
" />
<path d="M63000 27000
L64000 27000
" />
</g>
<g style="fill:#008400; fill-opacity:0.0; 
stroke:#008400; stroke-width:0; stroke-opacity:1; 
stroke-linecap:round; stroke-linejoin:round;">
</g>
<g style="fill:#008400; fill-opacity:1.0; 
stroke:#008400; stroke-width:100; stroke-opacity:1; 
stroke-linecap:round; stroke-linejoin:round;">
<circle cx="64000" cy="27000" r="200" /> 
</g>
<g style="fill:#008400; fill-opacity:1.0; 
stroke:#008400; stroke-width:60; stroke-opacity:1; 
stroke-linecap:round; stroke-linejoin:round;">
</g>
<g style="fill:#008400; fill-opacity:0.0; 
stroke:#008400; stroke-width:60; stroke-opacity:1; 
stroke-linecap:round; stroke-linejoin:round;">
<path d="M57000 27000
L56000 27000
" />
<path d="M56000 27000
L56000 52000
" />
<path d="M64000 22000
L64000 23000
" />
<path d="M50000 41000
L50000 43000
" />
<path d="M49000 42000
L50000 42000
" />
</g>
<g style="fill:#008400; fill-opacity:0.0; 
stroke:#008400; stroke-width:0; stroke-opacity:1; 
stroke-linecap:round; stroke-linejoin:round;">
</g>
<g style="fill:#008400; fill-opacity:1.0; 
stroke:#008400; stroke-width:100; stroke-opacity:1; 
stroke-linecap:round; stroke-linejoin:round;">
<circle cx="50000" cy="42000" r="200" /> 
</g>
<g style="fill:#008400; fill-opacity:1.0; 
stroke:#008400; stroke-width:60; stroke-opacity:1; 
stroke-linecap:round; stroke-linejoin:round;">
</g>
<g style="fill:#008400; fill-opacity:0.0; 
stroke:#008400; stroke-width:60; stroke-opacity:1; 
stroke-linecap:round; stroke-linejoin:round;">
<path d="M50000 46000
L50000 47000
" />
<path d="M50000 38000
L50000 37000
" />
<path d="M50000 37000
L70000 37000
" />
<path d="M64000 41000
L64000 43000
" />
<path d="M63000 42000
L64000 42000
" />
</g>
<g style="fill:#008400; fill-opacity:0.0; 
stroke:#008400; stroke-width:0; stroke-opacity:1; 
stroke-linecap:round; stroke-linejoin:round;">
</g>
<g style="fill:#008400; fill-opacity:1.0; 
stroke:#008400; stroke-width:100; stroke-opacity:1; 
stroke-linecap:round; stroke-linejoin:round;">
<circle cx="64000" cy="42000" r="200" /> 
</g>
<g style="fill:#008400; fill-opacity:1.0; 
stroke:#008400; stroke-width:60; stroke-opacity:1; 
stroke-linecap:round; stroke-linejoin:round;">
</g>
<g style="fill:#008400; fill-opacity:0.0; 
stroke:#008400; stroke-width:60; stroke-opacity:1; 
stroke-linecap:round; stroke-linejoin:round;">
<path d="M57000 42000
L56000 42000
" />
</g>
<g style="fill:#008400; fill-opacity:0.0; 
stroke:#008400; stroke-width:0; stroke-opacity:1; 
stroke-linecap:round; stroke-linejoin:round;">
</g>
<g style="fill:#008400; fill-opacity:1.0; 
stroke:#008400; stroke-width:100; stroke-opacity:1; 
stroke-linecap:round; stroke-linejoin:round;">
<circle cx="56000" cy="42000" r="200" /> 
</g>
<g style="fill:#008400; fill-opacity:1.0; 
stroke:#008400; stroke-width:60; stroke-opacity:1; 
stroke-linecap:round; stroke-linejoin:round;">
</g>
<g style="fill:#008400; fill-opacity:0.0; 
stroke:#008400; stroke-width:60; stroke-opacity:1; 
stroke-linecap:round; stroke-linejoin:round;">
<path d="M50000 47000
L70000 47000
" />
<path d="M64000 47000
L64000 46000
" />
</g>
<g style="fill:#008400; fill-opacity:0.0; 
stroke:#008400; stroke-width:0; stroke-opacity:1; 
stroke-linecap:round; stroke-linejoin:round;">
</g>
<g style="fill:#008400; fill-opacity:1.0; 
stroke:#008400; stroke-width:100; stroke-opacity:1; 
stroke-linecap:round; stroke-linejoin:round;">
<circle cx="64000" cy="47000" r="200" /> 
</g>
<g style="fill:#008400; fill-opacity:1.0; 
stroke:#008400; stroke-width:60; stroke-opacity:1; 
stroke-linecap:round; stroke-linejoin:round;">
</g>
<g style="fill:#008400; fill-opacity:0.0; 
stroke:#008400; stroke-width:60; stroke-opacity:1; 
stroke-linecap:round; stroke-linejoin:round;">
<path d="M64000 38000
L64000 37000
" />
</g>
<g style="fill:#008400; fill-opacity:0.0; 
stroke:#008400; stroke-width:0; stroke-opacity:1; 
stroke-linecap:round; stroke-linejoin:round;">
</g>
<g style="fill:#008400; fill-opacity:1.0; 
stroke:#008400; stroke-width:100; stroke-opacity:1; 
stroke-linecap:round; stroke-linejoin:round;">
<circle cx="64000" cy="37000" r="200" /> 
</g>
<g style="fill:#008400; fill-opacity:1.0; 
stroke:#008400; stroke-width:60; stroke-opacity:1; 
stroke-linecap:round; stroke-linejoin:round;">
</g>
<g style="fill:#008400; fill-opacity:0.0; 
stroke:#008400; stroke-width:60; stroke-opacity:1; 
stroke-linecap:round; stroke-linejoin:round;">
<path d="M43000 42000
L42000 42000
" />
</g>
<g style="fill:#008400; fill-opacity:0.0; 
stroke:#008400; stroke-width:0; stroke-opacity:1; 
stroke-linecap:round; stroke-linejoin:round;">
</g>
<g style="fill:#008400; fill-opacity:1.0; 
stroke:#008400; stroke-width:100; stroke-opacity:1; 
stroke-linecap:round; stroke-linejoin:round;">
<circle cx="42000" cy="42000" r="200" /> 
</g>
<g style="fill:#008400; fill-opacity:1.0; 
stroke:#008400; stroke-width:60; stroke-opacity:1; 
stroke-linecap:round; stroke-linejoin:round;">
</g>
<g style="fill:#0000C2; fill-opacity:1.0; 
stroke:#0000C2; stroke-width:60; stroke-opacity:1; 
stroke-linecap:round; stroke-linejoin:round;">
</g>
<g style="fill:#0000C2; fill-opacity:1.0; 
stroke:#0000C2; stroke-width:60; stroke-opacity:1; 
stroke-linecap:round; stroke-linejoin:round;stroke-dasharray:136.85,158.425;">
</g>
<g style="fill:#0000C2; fill-opacity:0.0; 
stroke:#0000C2; stroke-width:60; stroke-opacity:1; 
stroke-linecap:round; stroke-linejoin:round;stroke-dasharray:136.85,158.425;">
<path d="M66000 33000
L66000 21000
" />
</g>
<g style="fill:#0000C2; fill-opacity:0.0; 
stroke:#0000C2; stroke-width:60; stroke-opacity:1; 
stroke-linecap:round; stroke-linejoin:round;">
</g>
<g style="fill:#0000C2; fill-opacity:0.0; 
stroke:#0000C2; stroke-width:60; stroke-opacity:1; 
stroke-linecap:round; stroke-linejoin:round;stroke-dasharray:136.85,158.425;">
<path d="M66000 21000
L55000 21000
" />
</g>
<g style="fill:#0000C2; fill-opacity:0.0; 
stroke:#0000C2; stroke-width:60; stroke-opacity:1; 
stroke-linecap:round; stroke-linejoin:round;">
</g>
<g style="fill:#0000C2; fill-opacity:0.0; 
stroke:#0000C2; stroke-width:60; stroke-opacity:1; 
stroke-linecap:round; stroke-linejoin:round;stroke-dasharray:136.85,158.425;">
<path d="M55000 21000
L55000 33000
" />
</g>
<g style="fill:#0000C2; fill-opacity:0.0; 
stroke:#0000C2; stroke-width:60; stroke-opacity:1; 
stroke-linecap:round; stroke-linejoin:round;">
</g>
<g style="fill:#0000C2; fill-opacity:0.0; 
stroke:#0000C2; stroke-width:60; stroke-opacity:1; 
stroke-linecap:round; stroke-linejoin:round;stroke-dasharray:136.85,158.425;">
<path d="M55000 33000
L66000 33000
" />
</g>
<g style="fill:#0000C2; fill-opacity:0.0; 
stroke:#0000C2; stroke-width:60; stroke-opacity:1; 
stroke-linecap:round; stroke-linejoin:round;">
</g>
<g style="fill:#0000C2; fill-opacity:0.0; 
stroke:#0000C2; stroke-width:60; stroke-opacity:1; 
stroke-linecap:round; stroke-linejoin:round;stroke-dasharray:136.85,158.425;">
<path d="M55000 36000
L66000 36000
" />
</g>
<g style="fill:#0000C2; fill-opacity:0.0; 
stroke:#0000C2; stroke-width:60; stroke-opacity:1; 
stroke-linecap:round; stroke-linejoin:round;">
</g>
<g style="fill:#0000C2; fill-opacity:0.0; 
stroke:#0000C2; stroke-width:60; stroke-opacity:1; 
stroke-linecap:round; stroke-linejoin:round;stroke-dasharray:136.85,158.425;">
<path d="M66000 36000
L66000 48000
" />
</g>
<g style="fill:#0000C2; fill-opacity:0.0; 
stroke:#0000C2; stroke-width:60; stroke-opacity:1; 
stroke-linecap:round; stroke-linejoin:round;">
</g>
<g style="fill:#0000C2; fill-opacity:0.0; 
stroke:#0000C2; stroke-width:60; stroke-opacity:1; 
stroke-linecap:round; stroke-linejoin:round;stroke-dasharray:136.85,158.425;">
<path d="M66000 48000
L55000 48000
" />
</g>
<g style="fill:#0000C2; fill-opacity:0.0; 
stroke:#0000C2; stroke-width:60; stroke-opacity:1; 
stroke-linecap:round; stroke-linejoin:round;">
</g>
<g style="fill:#0000C2; fill-opacity:0.0; 
stroke:#0000C2; stroke-width:60; stroke-opacity:1; 
stroke-linecap:round; stroke-linejoin:round;stroke-dasharray:136.85,158.425;">
<path d="M55000 48000
L55000 36000
" />
</g>
<g style="fill:#0000C2; fill-opacity:0.0; 
stroke:#0000C2; stroke-width:60; stroke-opacity:1; 
stroke-linecap:round; stroke-linejoin:round;">
</g>
<g style="fill:#0000C2; fill-opacity:0.0; 
stroke:#0000C2; stroke-width:60; stroke-opacity:1; 
stroke-linecap:round; stroke-linejoin:round;stroke-dasharray:136.85,158.425;">
<path d="M52000 36000
L41000 36000
" />
</g>
<g style="fill:#0000C2; fill-opacity:0.0; 
stroke:#0000C2; stroke-width:60; stroke-opacity:1; 
stroke-linecap:round; stroke-linejoin:round;">
</g>
<g style="fill:#0000C2; fill-opacity:0.0; 
stroke:#0000C2; stroke-width:60; stroke-opacity:1; 
stroke-linecap:round; stroke-linejoin:round;stroke-dasharray:136.85,158.425;">
<path d="M41000 36000
L41000 48000
" />
</g>
<g style="fill:#0000C2; fill-opacity:0.0; 
stroke:#0000C2; stroke-width:60; stroke-opacity:1; 
stroke-linecap:round; stroke-linejoin:round;">
</g>
<g style="fill:#0000C2; fill-opacity:0.0; 
stroke:#0000C2; stroke-width:60; stroke-opacity:1; 
stroke-linecap:round; stroke-linejoin:round;stroke-dasharray:136.85,158.425;">
<path d="M41000 48000
L52000 48000
" />
</g>
<g style="fill:#0000C2; fill-opacity:0.0; 
stroke:#0000C2; stroke-width:60; stroke-opacity:1; 
stroke-linecap:round; stroke-linejoin:round;">
</g>
<g style="fill:#0000C2; fill-opacity:0.0; 
stroke:#0000C2; stroke-width:60; stroke-opacity:1; 
stroke-linecap:round; stroke-linejoin:round;stroke-dasharray:136.85,158.425;">
<path d="M52000 48000
L52000 36000
" />
</g>
<g style="fill:#0000C2; fill-opacity:0.0; 
stroke:#0000C2; stroke-width:60; stroke-opacity:1; 
stroke-linecap:round; stroke-linejoin:round;">
</g>
<g style="fill:#0000C2; fill-opacity:0.0; 
stroke:#0000C2; stroke-width:60; stroke-opacity:1; 
stroke-linecap:round; stroke-linejoin:round;stroke-dasharray:136.85,158.425;">
<path d="M52000 33000
L52000 21000
" />
</g>
<g style="fill:#0000C2; fill-opacity:0.0; 
stroke:#0000C2; stroke-width:60; stroke-opacity:1; 
stroke-linecap:round; stroke-linejoin:round;">
</g>
<g style="fill:#0000C2; fill-opacity:0.0; 
stroke:#0000C2; stroke-width:60; stroke-opacity:1; 
stroke-linecap:round; stroke-linejoin:round;stroke-dasharray:136.85,158.425;">
<path d="M52000 21000
L41000 21000
" />
</g>
<g style="fill:#0000C2; fill-opacity:0.0; 
stroke:#0000C2; stroke-width:60; stroke-opacity:1; 
stroke-linecap:round; stroke-linejoin:round;">
</g>
<g style="fill:#0000C2; fill-opacity:0.0; 
stroke:#0000C2; stroke-width:60; stroke-opacity:1; 
stroke-linecap:round; stroke-linejoin:round;stroke-dasharray:136.85,158.425;">
<path d="M41000 21000
L41000 33000
" />
</g>
<g style="fill:#0000C2; fill-opacity:0.0; 
stroke:#0000C2; stroke-width:60; stroke-opacity:1; 
stroke-linecap:round; stroke-linejoin:round;">
</g>
<g style="fill:#0000C2; fill-opacity:0.0; 
stroke:#0000C2; stroke-width:60; stroke-opacity:1; 
stroke-linecap:round; stroke-linejoin:round;stroke-dasharray:136.85,158.425;">
<path d="M41000 33000
L52000 33000
" />
</g>
<g style="fill:#0000C2; fill-opacity:0.0; 
stroke:#0000C2; stroke-width:60; stroke-opacity:1; 
stroke-linecap:round; stroke-linejoin:round;">
</g>
<g style="fill:#840000; fill-opacity:0.0; 
stroke:#840000; stroke-width:60; stroke-opacity:1; 
stroke-linecap:round; stroke-linejoin:round;">
<path d="M70470 22240
L70560 22270
L70700 22270
L70760 22240
L70790 22210
L70820 22160
L70820 22100
L70790 22040
L70760 22010
L70700 21990
L70590 21960
L70530 21930
L70500 21900
L70470 21840
L70470 21790
L70500 21730
L70530 21700
L70590 21670
L70730 21670
L70820 21700
" />
<path d="M71070 21960
L71270 21960
" />
<path d="M71360 22270
L71070 22270
L71070 21670
L71360 21670
" />
<path d="M71530 21670
L71870 21670
" />
<path d="M71700 22270
L71700 21670
" />
<path d="M71930 22330
L72390 22330
" />
<path d="M72880 22270
L72680 21990
" />
<path d="M72530 22270
L72530 21670
L72760 21670
L72820 21700
L72850 21730
L72880 21790
L72880 21870
L72850 21930
L72820 21960
L72760 21990
L72530 21990
" />
<path d="M73250 21670
L73360 21670
L73420 21700
L73480 21760
L73500 21870
L73500 22070
L73480 22190
L73420 22240
L73360 22270
L73250 22270
L73190 22240
L73130 22190
L73100 22070
L73100 21870
L73130 21760
L73190 21700
L73250 21670
" />
<path d="M73710 21670
L73850 22270
L73960 21840
L74080 22270
L74220 21670
" />
<path d="M74310 22330
L74770 22330
" />
<path d="M75030 21670
L75080 21670
L75140 21700
L75170 21730
L75200 21790
L75230 21900
L75230 22040
L75200 22160
L75170 22210
L75140 22240
L75080 22270
L75030 22270
L74970 22240
L74940 22210
L74910 22160
L74880 22040
L74880 21900
L74910 21790
L74940 21730
L74970 21700
L75030 21670
" />
</g>
<g style="fill:#840000; fill-opacity:0.0; 
stroke:#840000; stroke-width:100; stroke-opacity:1; 
stroke-linecap:round; stroke-linejoin:round;">
<polyline fill="none;"
points="70000,22000
70300,22540
75570,22540
75570,22000
75570,21460
70300,21460
70000,22000
" /> 
</g>
<g style="fill:#840000; fill-opacity:0.0; 
stroke:#840000; stroke-width:60; stroke-opacity:1; 
stroke-linecap:round; stroke-linejoin:round;">
<path d="M70470 37240
L70560 37270
L70700 37270
L70760 37240
L70790 37210
L70820 37160
L70820 37100
L70790 37040
L70760 37010
L70700 36990
L70590 36960
L70530 36930
L70500 36900
L70470 36840
L70470 36790
L70500 36730
L70530 36700
L70590 36670
L70730 36670
L70820 36700
" />
<path d="M71070 36960
L71270 36960
" />
<path d="M71360 37270
L71070 37270
L71070 36670
L71360 36670
" />
<path d="M71530 36670
L71870 36670
" />
<path d="M71700 37270
L71700 36670
" />
<path d="M71930 37330
L72390 37330
" />
<path d="M72880 37270
L72680 36990
" />
<path d="M72530 37270
L72530 36670
L72760 36670
L72820 36700
L72850 36730
L72880 36790
L72880 36870
L72850 36930
L72820 36960
L72760 36990
L72530 36990
" />
<path d="M73250 36670
L73360 36670
L73420 36700
L73480 36760
L73500 36870
L73500 37070
L73480 37190
L73420 37240
L73360 37270
L73250 37270
L73190 37240
L73130 37190
L73100 37070
L73100 36870
L73130 36760
L73190 36700
L73250 36670
" />
<path d="M73710 36670
L73850 37270
L73960 36840
L74080 37270
L74220 36670
" />
<path d="M74310 37330
L74770 37330
" />
<path d="M75230 37270
L74880 37270
" />
<path d="M75060 37270
L75060 36670
L75000 36760
L74940 36810
L74880 36840
" />
</g>
<g style="fill:#840000; fill-opacity:0.0; 
stroke:#840000; stroke-width:100; stroke-opacity:1; 
stroke-linecap:round; stroke-linejoin:round;">
<polyline fill="none;"
points="70000,37000
70300,37540
75570,37540
75570,37000
75570,36460
70300,36460
70000,37000
" /> 
</g>
<g style="fill:#840000; fill-opacity:0.0; 
stroke:#840000; stroke-width:60; stroke-opacity:1; 
stroke-linecap:round; stroke-linejoin:round;">
<path d="M70850 32270
L70650 31990
" />
<path d="M70500 32270
L70500 31670
L70730 31670
L70790 31700
L70820 31730
L70850 31790
L70850 31870
L70820 31930
L70790 31960
L70730 31990
L70500 31990
" />
<path d="M71100 31960
L71300 31960
" />
<path d="M71390 32270
L71100 32270
L71100 31670
L71390 31670
" />
<path d="M71610 32240
L71700 32270
L71840 32270
L71900 32240
L71930 32210
L71960 32160
L71960 32100
L71930 32040
L71900 32010
L71840 31990
L71730 31960
L71670 31930
L71640 31900
L71610 31840
L71610 31790
L71640 31730
L71670 31700
L71730 31670
L71870 31670
L71960 31700
" />
<path d="M72210 31960
L72410 31960
" />
<path d="M72500 32270
L72210 32270
L72210 31670
L72500 31670
" />
<path d="M72670 31670
L73010 31670
" />
<path d="M72840 32270
L72840 31670
" />
<path d="M73070 32330
L73530 32330
" />
<path d="M74020 32270
L73820 31990
" />
<path d="M73670 32270
L73670 31670
L73900 31670
L73960 31700
L73990 31730
L74020 31790
L74020 31870
L73990 31930
L73960 31960
L73900 31990
L73670 31990
" />
<path d="M74390 31670
L74500 31670
L74560 31700
L74620 31760
L74640 31870
L74640 32070
L74620 32190
L74560 32240
L74500 32270
L74390 32270
L74330 32240
L74270 32190
L74240 32070
L74240 31870
L74270 31760
L74330 31700
L74390 31670
" />
<path d="M74850 31670
L74990 32270
L75100 31840
L75220 32270
L75360 31670
" />
<path d="M75450 32330
L75910 32330
" />
<path d="M76170 31670
L76220 31670
L76280 31700
L76310 31730
L76340 31790
L76370 31900
L76370 32040
L76340 32160
L76310 32210
L76280 32240
L76220 32270
L76170 32270
L76110 32240
L76080 32210
L76050 32160
L76020 32040
L76020 31900
L76050 31790
L76080 31730
L76110 31700
L76170 31670
" />
</g>
<g style="fill:#840000; fill-opacity:0.0; 
stroke:#840000; stroke-width:100; stroke-opacity:1; 
stroke-linecap:round; stroke-linejoin:round;">
<polyline fill="none;"
points="70000,32000
70300,32540
76710,32540
76710,32000
76710,31460
70300,31460
70000,32000
" /> 
</g>
<g style="fill:#840000; fill-opacity:0.0; 
stroke:#840000; stroke-width:60; stroke-opacity:1; 
stroke-linecap:round; stroke-linejoin:round;">
<path d="M70850 47270
L70650 46990
" />
<path d="M70500 47270
L70500 46670
L70730 46670
L70790 46700
L70820 46730
L70850 46790
L70850 46870
L70820 46930
L70790 46960
L70730 46990
L70500 46990
" />
<path d="M71100 46960
L71300 46960
" />
<path d="M71390 47270
L71100 47270
L71100 46670
L71390 46670
" />
<path d="M71610 47240
L71700 47270
L71840 47270
L71900 47240
L71930 47210
L71960 47160
L71960 47100
L71930 47040
L71900 47010
L71840 46990
L71730 46960
L71670 46930
L71640 46900
L71610 46840
L71610 46790
L71640 46730
L71670 46700
L71730 46670
L71870 46670
L71960 46700
" />
<path d="M72210 46960
L72410 46960
" />
<path d="M72500 47270
L72210 47270
L72210 46670
L72500 46670
" />
<path d="M72670 46670
L73010 46670
" />
<path d="M72840 47270
L72840 46670
" />
<path d="M73070 47330
L73530 47330
" />
<path d="M74020 47270
L73820 46990
" />
<path d="M73670 47270
L73670 46670
L73900 46670
L73960 46700
L73990 46730
L74020 46790
L74020 46870
L73990 46930
L73960 46960
L73900 46990
L73670 46990
" />
<path d="M74390 46670
L74500 46670
L74560 46700
L74620 46760
L74640 46870
L74640 47070
L74620 47190
L74560 47240
L74500 47270
L74390 47270
L74330 47240
L74270 47190
L74240 47070
L74240 46870
L74270 46760
L74330 46700
L74390 46670
" />
<path d="M74850 46670
L74990 47270
L75100 46840
L75220 47270
L75360 46670
" />
<path d="M75450 47330
L75910 47330
" />
<path d="M76370 47270
L76020 47270
" />
<path d="M76200 47270
L76200 46670
L76140 46760
L76080 46810
L76020 46840
" />
</g>
<g style="fill:#840000; fill-opacity:0.0; 
stroke:#840000; stroke-width:100; stroke-opacity:1; 
stroke-linecap:round; stroke-linejoin:round;">
<polyline fill="none;"
points="70000,47000
70300,47540
76710,47540
76710,47000
76710,46460
70300,46460
70000,47000
" /> 
</g>
<g style="fill:#840000; fill-opacity:0.0; 
stroke:#840000; stroke-width:60; stroke-opacity:1; 
stroke-linecap:round; stroke-linejoin:round;">
<path d="M42210 54620
L42240 54650
L42270 54740
L42270 54800
L42240 54880
L42190 54940
L42130 54970
L42010 55000
L41930 55000
L41810 54970
L41760 54940
L41700 54880
L41670 54800
L41670 54740
L41700 54650
L41730 54620
" />
<path d="M41670 54250
L41670 54140
L41700 54080
L41760 54020
L41870 54000
L42070 54000
L42190 54020
L42240 54080
L42270 54140
L42270 54250
L42240 54310
L42190 54370
L42070 54400
L41870 54400
L41760 54370
L41700 54310
L41670 54250
" />
<path d="M42270 53450
L42270 53740
L41670 53740
" />
<path d="M42330 53390
L42330 52930
" />
<path d="M41670 52670
L41670 52620
L41700 52560
L41730 52530
L41790 52500
L41900 52470
L42040 52470
L42160 52500
L42210 52530
L42240 52560
L42270 52620
L42270 52670
L42240 52730
L42210 52760
L42160 52790
L42040 52820
L41900 52820
L41790 52790
L41730 52760
L41700 52730
L41670 52670
" />
</g>
<g style="fill:#840000; fill-opacity:0.0; 
stroke:#840000; stroke-width:100; stroke-opacity:1; 
stroke-linecap:round; stroke-linejoin:round;">
<polyline fill="none;"
points="42000,52000
41460,52300
41460,55340
42000,55340
42540,55340
42540,52300
42000,52000
" /> 
</g>
<g style="fill:#840000; fill-opacity:0.0; 
stroke:#840000; stroke-width:60; stroke-opacity:1; 
stroke-linecap:round; stroke-linejoin:round;">
<path d="M56210 54620
L56240 54650
L56270 54740
L56270 54800
L56240 54880
L56190 54940
L56130 54970
L56010 55000
L55930 55000
L55810 54970
L55760 54940
L55700 54880
L55670 54800
L55670 54740
L55700 54650
L55730 54620
" />
<path d="M55670 54250
L55670 54140
L55700 54080
L55760 54020
L55870 54000
L56070 54000
L56190 54020
L56240 54080
L56270 54140
L56270 54250
L56240 54310
L56190 54370
L56070 54400
L55870 54400
L55760 54370
L55700 54310
L55670 54250
" />
<path d="M56270 53450
L56270 53740
L55670 53740
" />
<path d="M56330 53390
L56330 52930
" />
<path d="M56270 52470
L56270 52820
" />
<path d="M56270 52640
L55670 52640
L55760 52700
L55810 52760
L55840 52820
" />
</g>
<g style="fill:#840000; fill-opacity:0.0; 
stroke:#840000; stroke-width:100; stroke-opacity:1; 
stroke-linecap:round; stroke-linejoin:round;">
<polyline fill="none;"
points="56000,52000
55460,52300
55460,55340
56000,55340
56540,55340
56540,52300
56000,52000
" /> 
</g>
<g style="fill:#840000; fill-opacity:0.0; 
stroke:#840000; stroke-width:60; stroke-opacity:1; 
stroke-linecap:round; stroke-linejoin:round;">
</g>
<g style="fill:#008400; fill-opacity:0.0; 
stroke:#008400; stroke-width:60; stroke-opacity:1; 
stroke-linecap:round; stroke-linejoin:round;">
<path d="M64000 31000
L64000 32000
" />
</g>
<g style="fill:#008400; fill-opacity:0.0; 
stroke:#008400; stroke-width:0; stroke-opacity:1; 
stroke-linecap:round; stroke-linejoin:round;">
</g>
<g style="fill:#008400; fill-opacity:1.0; 
stroke:#008400; stroke-width:100; stroke-opacity:1; 
stroke-linecap:round; stroke-linejoin:round;">
<circle cx="64000" cy="32000" r="200" /> 
</g> 
</svg>
